<svg width="3840" height="2160" viewBox="0 0 3840 2160" fill="none" xmlns="http://www.w3.org/2000/svg">
<rect width="3840" height="2160" fill="#FF7538"/>
<rect x="3218" y="1972" width="539.93" height="113.732" rx="35.9155" fill="#FEFEFA"/>
<rect x="3283.85" y="1992.8" width="69.7755" height="72.7178" rx="12.6101" fill="#FF7538"/>
<path d="M3338.64 2046.41C3338.64 2047.57 3338.18 2048.69 3337.36 2049.51C3336.54 2050.33 3335.42 2050.79 3334.26 2050.79H3303.6C3302.44 2050.79 3301.32 2050.33 3300.5 2049.51C3299.68 2048.69 3299.22 2047.57 3299.22 2046.41C3299.22 2042.92 3300.6 2039.58 3303.07 2037.12C3305.53 2034.65 3308.87 2033.27 3312.36 2033.27H3325.5C3328.99 2033.27 3332.33 2034.65 3334.79 2037.12C3337.26 2039.58 3338.64 2042.92 3338.64 2046.41ZM3318.93 2028.89C3321.1 2028.89 3323.21 2028.25 3325.01 2027.04C3326.81 2025.84 3328.22 2024.13 3329.05 2022.13C3329.88 2020.13 3330.09 2017.93 3329.67 2015.8C3329.25 2013.68 3328.2 2011.73 3326.67 2010.2C3325.14 2008.66 3323.19 2007.62 3321.07 2007.2C3318.94 2006.78 3316.74 2006.99 3314.74 2007.82C3312.74 2008.65 3311.03 2010.05 3309.83 2011.85C3308.62 2013.66 3307.98 2015.77 3307.98 2017.94C3307.98 2020.84 3309.13 2023.63 3311.19 2025.68C3313.24 2027.74 3316.03 2028.89 3318.93 2028.89Z" fill="#FEFEFA"/>
<path d="M3374.97 2035.76V2006.51H3385.23V2035.07C3385.23 2040.96 3388.46 2044.18 3394.22 2044.18C3400.05 2044.18 3403.34 2040.83 3403.34 2035.07V2006.51H3413.6V2035.76C3413.6 2046.91 3406 2054.13 3394.22 2054.13C3382.51 2054.13 3374.97 2046.97 3374.97 2035.76ZM3444.11 2015.37C3435.63 2015.37 3431.26 2021.33 3431.26 2030.38C3431.26 2039.82 3436.58 2044.5 3444.05 2044.5C3451.77 2044.5 3455.19 2040.32 3455.64 2035.45H3443.23V2026.46H3465.26V2053.37H3456.46L3455.89 2049.12C3453.36 2052.1 3448.29 2054.06 3442.72 2054.06C3429.61 2054.06 3420.43 2044.44 3420.43 2030.06C3420.43 2015.94 3429.87 2005.75 3444.37 2005.75C3455.57 2005.75 3464.18 2012.34 3465.26 2022.47H3454.5C3453.29 2017.53 3448.99 2015.37 3444.11 2015.37ZM3493.99 2054.13C3479.94 2054.13 3471.14 2044.82 3471.14 2030C3471.14 2015.37 3480.44 2005.75 3494.44 2005.75C3506.15 2005.75 3514.57 2012.46 3516.03 2022.97H3505.2C3503.81 2018.29 3499.82 2015.63 3494.18 2015.63C3486.59 2015.63 3481.96 2021.01 3481.96 2029.94C3481.96 2038.74 3486.65 2044.25 3494.18 2044.25C3499.95 2044.25 3504.19 2041.4 3505.46 2036.78H3516.09C3514.45 2047.22 3505.71 2054.13 3493.99 2054.13ZM3566.43 2035.07H3549.97V2053.37H3539.71V2006.51H3569.53V2016.01H3549.97V2025.82H3566.43V2035.07ZM3582.39 2054.19C3575.68 2054.19 3571.5 2050.26 3571.5 2044.06C3571.5 2038.23 3575.61 2034.62 3583.21 2034.05L3592.08 2033.36V2032.85C3592.08 2029.75 3590.18 2028.1 3586.69 2028.1C3582.58 2028.1 3580.36 2029.68 3580.36 2032.53H3572.26C3572.26 2025.38 3578.14 2020.69 3587.2 2020.69C3596.38 2020.69 3601.57 2025.82 3601.57 2034.88V2053.37H3592.96L3592.33 2049.19C3591.32 2052.1 3587.14 2054.19 3582.39 2054.19ZM3585.81 2046.97C3589.54 2046.97 3592.14 2045.13 3592.14 2041.53V2039.82L3587.2 2040.26C3582.96 2040.64 3581.44 2041.59 3581.44 2043.62C3581.44 2045.89 3582.83 2046.97 3585.81 2046.97ZM3630.35 2021.71V2030.89H3627.25C3621.67 2030.89 3618.32 2033.36 3618.32 2039.63V2053.37H3608.57V2021.77H3617.75L3618.25 2026.46C3619.58 2023.35 3622.37 2021.26 3626.61 2021.26C3627.75 2021.26 3629.02 2021.39 3630.35 2021.71ZM3645.03 2053.37H3635.28V2021.71H3644.4L3645.03 2025C3646.61 2022.78 3649.72 2020.69 3654.28 2020.69C3659.02 2020.69 3662.06 2022.91 3663.9 2026.27C3665.55 2022.91 3669.28 2020.69 3673.84 2020.69C3682.01 2020.69 3686.06 2025.44 3686.06 2032.66V2053.37H3676.31V2035.38C3676.31 2031.39 3674.22 2029.49 3671.12 2029.49C3668.33 2029.49 3665.55 2031.01 3665.55 2036.4V2053.37H3655.8V2035.38C3655.8 2031.46 3653.77 2029.56 3650.67 2029.56C3647.88 2029.56 3645.03 2031.08 3645.03 2036.4V2053.37Z" fill="#FF7538"/>
<path d="M667.216 1101.07V1011.44H698.644V1098.93C698.644 1116.98 708.538 1126.87 726.192 1126.87C744.04 1126.87 754.128 1116.59 754.128 1098.93V1011.44H785.556V1101.07C785.556 1135.21 762.276 1157.33 726.192 1157.33C690.302 1157.33 667.216 1135.41 667.216 1101.07ZM879.046 1038.6C853.05 1038.6 839.664 1056.84 839.664 1084.58C839.664 1113.48 855.96 1127.84 878.852 1127.84C902.52 1127.84 912.996 1115.04 914.354 1100.1H876.33V1072.55H943.842V1155H916.876L915.13 1142C907.37 1151.12 891.85 1157.13 874.778 1157.13C834.62 1157.13 806.49 1127.65 806.49 1083.61C806.49 1040.35 835.396 1009.11 879.822 1009.11C914.16 1009.11 940.544 1029.29 943.842 1060.33H910.862C907.176 1045.2 893.984 1038.6 879.046 1038.6ZM1031.88 1157.33C988.807 1157.33 961.841 1128.81 961.841 1083.41C961.841 1038.6 990.359 1009.11 1033.23 1009.11C1069.12 1009.11 1094.93 1029.68 1099.39 1061.88H1066.21C1061.95 1047.52 1049.72 1039.38 1032.46 1039.38C1009.18 1039.38 995.015 1055.87 995.015 1083.22C995.015 1110.19 1009.37 1127.06 1032.46 1127.06C1050.11 1127.06 1063.11 1118.33 1066.99 1104.17H1099.58C1094.54 1136.18 1067.77 1157.33 1031.88 1157.33ZM1163.99 1053.15C1163.99 1027.15 1185.91 1008.72 1216.76 1008.72C1247.6 1008.72 1267 1025.8 1267 1052.96H1235.77C1235.77 1042.87 1228.2 1036.66 1216.37 1036.66C1203.56 1036.66 1195.42 1042.48 1195.42 1051.99C1195.42 1060.72 1199.88 1064.98 1209.97 1067.12L1231.5 1071.58C1257.11 1076.82 1269.33 1089.04 1269.33 1111.74C1269.33 1139.48 1247.6 1157.52 1214.62 1157.52C1182.61 1157.52 1161.85 1140.26 1161.85 1113.29H1193.09C1193.09 1123.77 1200.85 1129.59 1214.82 1129.59C1228.98 1129.59 1237.9 1123.96 1237.9 1114.84C1237.9 1106.89 1234.22 1102.81 1224.71 1100.87L1202.79 1096.41C1177.18 1091.17 1163.99 1076.62 1163.99 1053.15ZM1325.66 1155H1295.79V1082.83H1277.36V1058H1295.79V1027.93H1325.66V1058H1344.09V1082.83H1325.66V1155ZM1424.26 1058V1086.13H1414.75C1397.68 1086.13 1387.4 1093.7 1387.4 1112.9V1155H1357.52V1058.19H1385.65L1387.2 1072.55C1391.28 1063.04 1399.81 1056.64 1412.81 1056.64C1416.3 1056.64 1420.18 1057.03 1424.26 1058ZM1464.87 1157.52C1444.3 1157.52 1431.5 1145.49 1431.5 1126.48C1431.5 1108.63 1444.11 1097.58 1467.39 1095.83L1494.55 1093.7V1092.14C1494.55 1082.64 1488.73 1077.59 1478.06 1077.59C1465.45 1077.59 1458.66 1082.44 1458.66 1091.17H1433.83C1433.83 1069.25 1451.87 1054.9 1479.61 1054.9C1507.74 1054.9 1523.65 1070.61 1523.65 1098.35V1155H1497.27L1495.33 1142.2C1492.22 1151.12 1479.42 1157.52 1464.87 1157.52ZM1475.34 1135.41C1486.79 1135.41 1494.74 1129.78 1494.74 1118.72V1113.48L1479.61 1114.84C1466.61 1116.01 1461.96 1118.92 1461.96 1125.12C1461.96 1132.11 1466.23 1135.41 1475.34 1135.41ZM1583.32 1155H1553.44V1082.83H1535.01V1058H1553.44V1027.93H1583.32V1058H1601.75V1082.83H1583.32V1155ZM1659.24 1157.52C1629.94 1157.52 1608.99 1136.18 1608.99 1106.31C1608.99 1076.04 1629.36 1054.9 1658.65 1054.9C1689.11 1054.9 1708.12 1074.88 1708.12 1106.5V1114.07L1637.7 1114.45C1639.45 1127.26 1646.63 1133.27 1659.82 1133.27C1671.07 1133.27 1679.02 1129.2 1681.16 1122.21H1708.51C1705.02 1143.75 1685.81 1157.52 1659.24 1157.52ZM1658.85 1079.15C1647.01 1079.15 1640.42 1084.38 1638.09 1096.02H1678.44C1678.44 1085.74 1670.88 1079.15 1658.85 1079.15ZM1720.97 1104.75C1720.97 1075.27 1740.17 1054.7 1767.53 1054.7C1780.72 1054.7 1791.19 1059.75 1796.43 1067.7L1797.98 1058H1826.11V1148.79C1826.11 1183.52 1806.13 1204.47 1772.96 1204.47C1743.28 1204.47 1723.29 1187.59 1720.58 1160.04H1750.84C1751.42 1170.91 1759.57 1177.31 1772.76 1177.31C1787.12 1177.31 1796.24 1168.77 1796.24 1155V1142.39C1790.42 1149.37 1779.55 1153.84 1766.94 1153.84C1739.78 1153.84 1720.97 1133.85 1720.97 1104.75ZM1751.04 1103.98C1751.04 1117.95 1760.35 1127.84 1773.54 1127.84C1787.12 1127.84 1796.24 1118.33 1796.24 1103.98C1796.24 1089.82 1787.12 1080.7 1773.35 1080.7C1760.15 1080.7 1751.04 1090.2 1751.04 1103.98ZM1840.82 1201.56V1176.53H1857.31C1867.4 1176.53 1871.67 1173.43 1875.55 1162.95L1877.29 1158.3L1838.3 1058H1870.31L1891.46 1120.27L1914.93 1058H1945.97L1896.69 1176.15C1888.55 1195.93 1877.68 1204.28 1860.61 1204.28C1853.43 1204.28 1846.64 1203.31 1840.82 1201.56ZM2044.34 1155H2013.3V1011.44H2044.34L2104.87 1102.81V1011.44H2135.91V1155H2104.87L2044.34 1063.82V1155ZM2156.89 1106.31C2156.89 1075.65 2179.39 1055.09 2210.43 1055.09C2241.28 1055.09 2263.78 1075.65 2263.78 1106.31C2263.78 1136.96 2241.28 1157.33 2210.43 1157.33C2179.39 1157.33 2156.89 1136.96 2156.89 1106.31ZM2186.96 1106.11C2186.96 1120.86 2196.47 1130.56 2210.43 1130.56C2224.21 1130.56 2233.71 1120.86 2233.71 1106.11C2233.71 1091.56 2224.21 1081.86 2210.43 1081.86C2196.47 1081.86 2186.96 1091.56 2186.96 1106.11ZM2319.34 1155H2289.47V1082.83H2271.04V1058H2289.47V1027.93H2319.34V1058H2337.77V1082.83H2319.34V1155ZM2437.27 1155L2394.2 1011.44H2426.99L2445.81 1073.71C2448.33 1082.25 2450.66 1090.79 2452.98 1104.95C2455.31 1090.79 2457.64 1082.64 2460.16 1073.71L2477.82 1011.44H2512.93L2529.81 1073.71C2532.14 1082.44 2534.46 1091.17 2536.99 1104.95C2539.9 1090.4 2542.03 1082.44 2544.55 1074.1L2563.76 1011.44H2595.77L2551.92 1155H2521.27L2495.08 1060.72L2468.12 1155H2437.27ZM2589.22 1106.31C2589.22 1075.65 2611.73 1055.09 2642.77 1055.09C2673.61 1055.09 2696.12 1075.65 2696.12 1106.31C2696.12 1136.96 2673.61 1157.33 2642.77 1157.33C2611.73 1157.33 2589.22 1136.96 2589.22 1106.31ZM2619.29 1106.11C2619.29 1120.86 2628.8 1130.56 2642.77 1130.56C2656.54 1130.56 2666.05 1120.86 2666.05 1106.11C2666.05 1091.56 2656.54 1081.86 2642.77 1081.86C2628.8 1081.86 2619.29 1091.56 2619.29 1106.11ZM2780.17 1058V1086.13H2770.67C2753.59 1086.13 2743.31 1093.7 2743.31 1112.9V1155H2713.44V1058.19H2741.57L2743.12 1072.55C2747.19 1063.04 2755.73 1056.64 2768.73 1056.64C2772.22 1056.64 2776.1 1057.03 2780.17 1058ZM2825.16 1155H2795.28V1008.72H2825.16V1092.92L2856.58 1058H2894.03L2857.55 1096.41L2892.86 1155H2858.33L2836.6 1118.72L2825.16 1130.75V1155ZM2921.04 1042.87C2911.54 1042.87 2903.97 1035.3 2903.97 1025.8C2903.97 1016.29 2911.54 1008.92 2921.04 1008.92C2930.35 1008.92 2937.92 1016.29 2937.92 1025.8C2937.92 1035.3 2930.35 1042.87 2921.04 1042.87ZM2906.3 1155V1058H2936.17V1155H2906.3ZM2988.46 1155H2958.59V1058H2986.72L2988.66 1068.09C2994.67 1059.75 3005.73 1054.9 3018.34 1054.9C3041.43 1054.9 3054.81 1069.64 3054.81 1095.05V1155H3024.94V1102.23C3024.94 1090.01 3018.15 1082.06 3007.86 1082.06C2996.03 1082.06 2988.46 1089.82 2988.46 1101.84V1155ZM3071.39 1104.75C3071.39 1075.27 3090.59 1054.7 3117.95 1054.7C3131.14 1054.7 3141.62 1059.75 3146.85 1067.7L3148.41 1058H3176.54V1148.79C3176.54 1183.52 3156.55 1204.47 3123.38 1204.47C3093.7 1204.47 3073.72 1187.59 3071 1160.04H3101.26C3101.85 1170.91 3109.99 1177.31 3123.19 1177.31C3137.54 1177.31 3146.66 1168.77 3146.66 1155V1142.39C3140.84 1149.37 3129.98 1153.84 3117.37 1153.84C3090.21 1153.84 3071.39 1133.85 3071.39 1104.75ZM3101.46 1103.98C3101.46 1117.95 3110.77 1127.84 3123.96 1127.84C3137.54 1127.84 3146.66 1118.33 3146.66 1103.98C3146.66 1089.82 3137.54 1080.7 3123.77 1080.7C3110.58 1080.7 3101.46 1090.2 3101.46 1103.98Z" fill="#FEFEFA"/>
</svg>
