<svg width="3840" height="2160" viewBox="0 0 3840 2160" fill="none" xmlns="http://www.w3.org/2000/svg">
<rect width="3840" height="2160" fill="#FF7538"/>
<rect x="3218" y="1972" width="539.93" height="113.732" rx="35.9155" fill="#FEFEFA"/>
<rect x="3283.85" y="1992.8" width="69.7755" height="72.7178" rx="12.6101" fill="#FF7538"/>
<path d="M3338.64 2046.41C3338.64 2047.57 3338.18 2048.69 3337.36 2049.51C3336.54 2050.33 3335.42 2050.79 3334.26 2050.79H3303.6C3302.44 2050.79 3301.32 2050.33 3300.5 2049.51C3299.68 2048.69 3299.22 2047.57 3299.22 2046.41C3299.22 2042.92 3300.6 2039.58 3303.07 2037.12C3305.53 2034.65 3308.87 2033.27 3312.36 2033.27H3325.5C3328.99 2033.27 3332.33 2034.65 3334.79 2037.12C3337.26 2039.58 3338.64 2042.92 3338.64 2046.41ZM3318.93 2028.89C3321.1 2028.89 3323.21 2028.25 3325.01 2027.04C3326.81 2025.84 3328.22 2024.13 3329.05 2022.13C3329.88 2020.13 3330.09 2017.93 3329.67 2015.8C3329.25 2013.68 3328.2 2011.73 3326.67 2010.2C3325.14 2008.66 3323.19 2007.62 3321.07 2007.2C3318.94 2006.78 3316.74 2006.99 3314.74 2007.82C3312.74 2008.65 3311.03 2010.05 3309.83 2011.85C3308.62 2013.66 3307.98 2015.77 3307.98 2017.94C3307.98 2020.84 3309.13 2023.63 3311.19 2025.68C3313.24 2027.74 3316.03 2028.89 3318.93 2028.89Z" fill="#FEFEFA"/>
<path d="M3374.97 2035.76V2006.51H3385.23V2035.07C3385.23 2040.96 3388.46 2044.18 3394.22 2044.18C3400.05 2044.18 3403.34 2040.83 3403.34 2035.07V2006.51H3413.6V2035.76C3413.6 2046.91 3406 2054.13 3394.22 2054.13C3382.51 2054.13 3374.97 2046.97 3374.97 2035.76ZM3444.11 2015.37C3435.63 2015.37 3431.26 2021.33 3431.26 2030.38C3431.26 2039.82 3436.58 2044.5 3444.05 2044.5C3451.77 2044.5 3455.19 2040.32 3455.64 2035.45H3443.23V2026.46H3465.26V2053.37H3456.46L3455.89 2049.12C3453.36 2052.1 3448.29 2054.06 3442.72 2054.06C3429.61 2054.06 3420.43 2044.44 3420.43 2030.06C3420.43 2015.94 3429.87 2005.75 3444.37 2005.75C3455.57 2005.75 3464.18 2012.34 3465.26 2022.47H3454.5C3453.29 2017.53 3448.99 2015.37 3444.11 2015.37ZM3493.99 2054.13C3479.94 2054.13 3471.14 2044.82 3471.14 2030C3471.14 2015.37 3480.44 2005.75 3494.44 2005.75C3506.15 2005.75 3514.57 2012.46 3516.03 2022.97H3505.2C3503.81 2018.29 3499.82 2015.63 3494.18 2015.63C3486.59 2015.63 3481.96 2021.01 3481.96 2029.94C3481.96 2038.74 3486.65 2044.25 3494.18 2044.25C3499.95 2044.25 3504.19 2041.4 3505.46 2036.78H3516.09C3514.45 2047.22 3505.71 2054.13 3493.99 2054.13ZM3566.43 2035.07H3549.97V2053.37H3539.71V2006.51H3569.53V2016.01H3549.97V2025.82H3566.43V2035.07ZM3582.39 2054.19C3575.68 2054.19 3571.5 2050.26 3571.5 2044.06C3571.5 2038.23 3575.61 2034.62 3583.21 2034.05L3592.08 2033.36V2032.85C3592.08 2029.75 3590.18 2028.1 3586.69 2028.1C3582.58 2028.1 3580.36 2029.68 3580.36 2032.53H3572.26C3572.26 2025.38 3578.14 2020.69 3587.2 2020.69C3596.38 2020.69 3601.57 2025.82 3601.57 2034.88V2053.37H3592.96L3592.33 2049.19C3591.32 2052.1 3587.14 2054.19 3582.39 2054.19ZM3585.81 2046.97C3589.54 2046.97 3592.14 2045.13 3592.14 2041.53V2039.82L3587.2 2040.26C3582.96 2040.64 3581.44 2041.59 3581.44 2043.62C3581.44 2045.89 3582.83 2046.97 3585.81 2046.97ZM3630.35 2021.71V2030.89H3627.25C3621.67 2030.89 3618.32 2033.36 3618.32 2039.63V2053.37H3608.57V2021.77H3617.75L3618.25 2026.46C3619.58 2023.35 3622.37 2021.26 3626.61 2021.26C3627.75 2021.26 3629.02 2021.39 3630.35 2021.71ZM3645.03 2053.37H3635.28V2021.71H3644.4L3645.03 2025C3646.61 2022.78 3649.72 2020.69 3654.28 2020.69C3659.02 2020.69 3662.06 2022.91 3663.9 2026.27C3665.55 2022.91 3669.28 2020.69 3673.84 2020.69C3682.01 2020.69 3686.06 2025.44 3686.06 2032.66V2053.37H3676.31V2035.38C3676.31 2031.39 3674.22 2029.49 3671.12 2029.49C3668.33 2029.49 3665.55 2031.01 3665.55 2036.4V2053.37H3655.8V2035.38C3655.8 2031.46 3653.77 2029.56 3650.67 2029.56C3647.88 2029.56 3645.03 2031.08 3645.03 2036.4V2053.37Z" fill="#FF7538"/>
<path d="M1307.34 1155L1264.28 1011.44H1297.06L1315.88 1073.71C1318.4 1082.25 1320.73 1090.79 1323.06 1104.95C1325.39 1090.79 1327.71 1082.64 1330.24 1073.71L1347.89 1011.44H1383L1399.88 1073.71C1402.21 1082.44 1404.54 1091.17 1407.06 1104.95C1409.97 1090.4 1412.1 1082.44 1414.63 1074.1L1433.83 1011.44H1465.84L1422 1155H1391.35L1365.16 1060.72L1338.19 1155H1307.34ZM1509.95 1155H1480.07V1008.72H1510.14V1068.09C1516.15 1059.75 1527.21 1054.9 1539.82 1054.9C1562.91 1054.9 1576.29 1069.64 1576.29 1095.05V1155H1546.42V1102.23C1546.42 1090.01 1539.63 1082.06 1529.35 1082.06C1517.51 1082.06 1509.95 1089.82 1509.95 1101.84V1155ZM1627.01 1157.52C1606.45 1157.52 1593.65 1145.49 1593.65 1126.48C1593.65 1108.63 1606.26 1097.58 1629.54 1095.83L1656.7 1093.7V1092.14C1656.7 1082.64 1650.88 1077.59 1640.21 1077.59C1627.6 1077.59 1620.81 1082.44 1620.81 1091.17H1595.97C1595.97 1069.25 1614.02 1054.9 1641.76 1054.9C1669.89 1054.9 1685.8 1070.61 1685.8 1098.35V1155H1659.41L1657.47 1142.2C1654.37 1151.12 1641.56 1157.52 1627.01 1157.52ZM1637.49 1135.41C1648.94 1135.41 1656.89 1129.78 1656.89 1118.72V1113.48L1641.76 1114.84C1628.76 1116.01 1624.1 1118.92 1624.1 1125.12C1624.1 1132.11 1628.37 1135.41 1637.49 1135.41ZM1745.46 1155H1715.59V1082.83H1697.16V1058H1715.59V1027.93H1745.46V1058H1763.89V1082.83H1745.46V1155ZM1843.41 1042.87C1833.9 1042.87 1826.34 1035.3 1826.34 1025.8C1826.34 1016.29 1833.9 1008.92 1843.41 1008.92C1852.72 1008.92 1860.29 1016.29 1860.29 1025.8C1860.29 1035.3 1852.72 1042.87 1843.41 1042.87ZM1828.66 1155V1058H1858.54V1155H1828.66ZM1873.97 1124.35H1902.29C1902.68 1131.14 1907.72 1135.21 1916.84 1135.21C1926.15 1135.21 1930.42 1131.91 1930.42 1126.87C1930.42 1123.96 1928.87 1120.86 1921.69 1119.3L1903.84 1115.42C1886 1111.54 1877.27 1103.78 1877.27 1086.71C1877.27 1066.54 1894.53 1054.9 1917.81 1054.9C1940.32 1054.9 1956.03 1068.09 1956.03 1087.68H1927.71C1927.71 1081.09 1923.63 1076.62 1916.45 1076.62C1909.66 1076.62 1905.4 1080.12 1905.4 1085.35C1905.4 1089.82 1909.08 1092.34 1915.87 1093.89L1933.91 1097.77C1949.82 1101.26 1958.55 1108.63 1958.55 1124.15C1958.55 1144.91 1940.9 1157.52 1915.68 1157.52C1890.07 1157.52 1873.97 1143.94 1873.97 1124.35ZM2028.22 1101.07V1011.44H2059.65V1098.93C2059.65 1116.98 2069.54 1126.87 2087.2 1126.87C2105.04 1126.87 2115.13 1116.59 2115.13 1098.93V1011.44H2146.56V1101.07C2146.56 1135.21 2123.28 1157.33 2087.2 1157.33C2051.31 1157.33 2028.22 1135.41 2028.22 1101.07ZM2240.05 1038.6C2214.05 1038.6 2200.67 1056.84 2200.67 1084.58C2200.67 1113.48 2216.96 1127.84 2239.86 1127.84C2263.52 1127.84 2274 1115.04 2275.36 1100.1H2237.33V1072.55H2304.85V1155H2277.88L2276.13 1142C2268.37 1151.12 2252.85 1157.13 2235.78 1157.13C2195.62 1157.13 2167.49 1127.65 2167.49 1083.61C2167.49 1040.35 2196.4 1009.11 2240.83 1009.11C2275.16 1009.11 2301.55 1029.29 2304.85 1060.33H2271.87C2268.18 1045.2 2254.99 1038.6 2240.05 1038.6ZM2392.88 1157.33C2349.81 1157.33 2322.85 1128.81 2322.85 1083.41C2322.85 1038.6 2351.36 1009.11 2394.24 1009.11C2430.13 1009.11 2455.93 1029.68 2460.39 1061.88H2427.22C2422.95 1047.52 2410.73 1039.38 2393.46 1039.38C2370.18 1039.38 2356.02 1055.87 2356.02 1083.22C2356.02 1110.19 2370.38 1127.06 2393.46 1127.06C2411.12 1127.06 2424.11 1118.33 2427.99 1104.17H2460.59C2455.54 1136.18 2428.77 1157.33 2392.88 1157.33ZM2531.27 1116.01H2504.3V1111.93C2504.3 1093.11 2515.55 1083.8 2525.45 1075.85C2533.4 1069.45 2540.39 1063.63 2540.39 1054.12C2540.39 1043.06 2534.18 1036.66 2523.12 1036.66C2511.29 1036.66 2503.91 1045.2 2503.91 1058.78H2472.68C2472.68 1029.09 2493.63 1008.72 2523.9 1008.72C2554.35 1008.72 2572.59 1024.83 2572.59 1051.99C2572.59 1073.13 2558.82 1083.03 2547.76 1090.59C2538.83 1096.61 2531.27 1102.43 2531.27 1111.93V1116.01ZM2518.66 1157.52C2508.76 1157.52 2500.81 1149.57 2500.81 1140.06C2500.81 1130.36 2508.76 1122.41 2518.66 1122.41C2528.36 1122.41 2536.51 1130.56 2536.51 1140.06C2536.51 1149.37 2528.36 1157.52 2518.66 1157.52Z" fill="#FEFEFA"/>
</svg>
