<svg width="3840" height="2160" viewBox="0 0 3840 2160" fill="none" xmlns="http://www.w3.org/2000/svg">
<rect width="3840" height="2160" fill="#FF7538"/>
<rect x="3218" y="1972" width="539.93" height="113.732" rx="35.9155" fill="#FEFEFA"/>
<rect x="3283.85" y="1992.8" width="69.7755" height="72.7178" rx="12.6101" fill="#FF7538"/>
<path d="M3338.64 2046.41C3338.64 2047.57 3338.18 2048.69 3337.36 2049.51C3336.54 2050.33 3335.42 2050.79 3334.26 2050.79H3303.6C3302.44 2050.79 3301.32 2050.33 3300.5 2049.51C3299.68 2048.69 3299.22 2047.57 3299.22 2046.41C3299.22 2042.92 3300.6 2039.58 3303.07 2037.12C3305.53 2034.65 3308.87 2033.27 3312.36 2033.27H3325.5C3328.99 2033.27 3332.33 2034.65 3334.79 2037.12C3337.26 2039.58 3338.64 2042.92 3338.64 2046.41ZM3318.93 2028.89C3321.1 2028.89 3323.21 2028.25 3325.01 2027.04C3326.81 2025.84 3328.22 2024.13 3329.05 2022.13C3329.88 2020.13 3330.09 2017.93 3329.67 2015.8C3329.25 2013.68 3328.2 2011.73 3326.67 2010.2C3325.14 2008.66 3323.19 2007.62 3321.07 2007.2C3318.94 2006.78 3316.74 2006.99 3314.74 2007.82C3312.74 2008.65 3311.03 2010.05 3309.83 2011.85C3308.62 2013.66 3307.98 2015.77 3307.98 2017.94C3307.98 2020.84 3309.13 2023.63 3311.19 2025.68C3313.24 2027.74 3316.03 2028.89 3318.93 2028.89Z" fill="#FEFEFA"/>
<path d="M3374.97 2035.76V2006.51H3385.23V2035.07C3385.23 2040.96 3388.46 2044.18 3394.22 2044.18C3400.05 2044.18 3403.34 2040.83 3403.34 2035.07V2006.51H3413.6V2035.76C3413.6 2046.91 3406 2054.13 3394.22 2054.13C3382.51 2054.13 3374.97 2046.97 3374.97 2035.76ZM3444.11 2015.37C3435.63 2015.37 3431.26 2021.33 3431.26 2030.38C3431.26 2039.82 3436.58 2044.5 3444.05 2044.5C3451.77 2044.5 3455.19 2040.32 3455.64 2035.45H3443.23V2026.46H3465.26V2053.37H3456.46L3455.89 2049.12C3453.36 2052.1 3448.29 2054.06 3442.72 2054.06C3429.61 2054.06 3420.43 2044.44 3420.43 2030.06C3420.43 2015.94 3429.87 2005.75 3444.37 2005.75C3455.57 2005.75 3464.18 2012.34 3465.26 2022.47H3454.5C3453.29 2017.53 3448.99 2015.37 3444.11 2015.37ZM3493.99 2054.13C3479.94 2054.13 3471.14 2044.82 3471.14 2030C3471.14 2015.37 3480.44 2005.75 3494.44 2005.75C3506.15 2005.75 3514.57 2012.46 3516.03 2022.97H3505.2C3503.81 2018.29 3499.82 2015.63 3494.18 2015.63C3486.59 2015.63 3481.96 2021.01 3481.96 2029.94C3481.96 2038.74 3486.65 2044.25 3494.18 2044.25C3499.95 2044.25 3504.19 2041.4 3505.46 2036.78H3516.09C3514.45 2047.22 3505.71 2054.13 3493.99 2054.13ZM3566.43 2035.07H3549.97V2053.37H3539.71V2006.51H3569.53V2016.01H3549.97V2025.82H3566.43V2035.07ZM3582.39 2054.19C3575.68 2054.19 3571.5 2050.26 3571.5 2044.06C3571.5 2038.23 3575.61 2034.62 3583.21 2034.05L3592.08 2033.36V2032.85C3592.08 2029.75 3590.18 2028.1 3586.69 2028.1C3582.58 2028.1 3580.36 2029.68 3580.36 2032.53H3572.26C3572.26 2025.38 3578.14 2020.69 3587.2 2020.69C3596.38 2020.69 3601.57 2025.82 3601.57 2034.88V2053.37H3592.96L3592.33 2049.19C3591.32 2052.1 3587.14 2054.19 3582.39 2054.19ZM3585.81 2046.97C3589.54 2046.97 3592.14 2045.13 3592.14 2041.53V2039.82L3587.2 2040.26C3582.96 2040.64 3581.44 2041.59 3581.44 2043.62C3581.44 2045.89 3582.83 2046.97 3585.81 2046.97ZM3630.35 2021.71V2030.89H3627.25C3621.67 2030.89 3618.32 2033.36 3618.32 2039.63V2053.37H3608.57V2021.77H3617.75L3618.25 2026.46C3619.58 2023.35 3622.37 2021.26 3626.61 2021.26C3627.75 2021.26 3629.02 2021.39 3630.35 2021.71ZM3645.03 2053.37H3635.28V2021.71H3644.4L3645.03 2025C3646.61 2022.78 3649.72 2020.69 3654.28 2020.69C3659.02 2020.69 3662.06 2022.91 3663.9 2026.27C3665.55 2022.91 3669.28 2020.69 3673.84 2020.69C3682.01 2020.69 3686.06 2025.44 3686.06 2032.66V2053.37H3676.31V2035.38C3676.31 2031.39 3674.22 2029.49 3671.12 2029.49C3668.33 2029.49 3665.55 2031.01 3665.55 2036.4V2053.37H3655.8V2035.38C3655.8 2031.46 3653.77 2029.56 3650.67 2029.56C3647.88 2029.56 3645.03 2031.08 3645.03 2036.4V2053.37Z" fill="#FF7538"/>
<path d="M738.14 1101.07V1011.44H769.568V1098.93C769.568 1116.98 779.462 1126.87 797.116 1126.87C814.964 1126.87 825.052 1116.59 825.052 1098.93V1011.44H856.48V1101.07C856.48 1135.21 833.2 1157.33 797.116 1157.33C761.226 1157.33 738.14 1135.41 738.14 1101.07ZM949.97 1038.6C923.974 1038.6 910.588 1056.84 910.588 1084.58C910.588 1113.48 926.884 1127.84 949.776 1127.84C973.444 1127.84 983.92 1115.04 985.278 1100.1H947.254V1072.55H1014.77V1155H987.8L986.054 1142C978.294 1151.12 962.774 1157.13 945.702 1157.13C905.544 1157.13 877.414 1127.65 877.414 1083.61C877.414 1040.35 906.32 1009.11 950.746 1009.11C985.084 1009.11 1011.47 1029.29 1014.77 1060.33H981.786C978.1 1045.2 964.908 1038.6 949.97 1038.6ZM1102.8 1157.33C1059.73 1157.33 1032.77 1128.81 1032.77 1083.41C1032.77 1038.6 1061.28 1009.11 1104.16 1009.11C1140.05 1009.11 1165.85 1029.68 1170.31 1061.88H1137.14C1132.87 1047.52 1120.65 1039.38 1103.38 1039.38C1080.1 1039.38 1065.94 1055.87 1065.94 1083.22C1065.94 1110.19 1080.3 1127.06 1103.38 1127.06C1121.04 1127.06 1134.03 1118.33 1137.91 1104.17H1170.51C1165.46 1136.18 1138.69 1157.33 1102.8 1157.33ZM1324.73 1098.93H1274.29V1155H1242.87V1011.44H1334.24V1040.54H1274.29V1070.61H1324.73V1098.93ZM1373.62 1157.52C1353.06 1157.52 1340.25 1145.49 1340.25 1126.48C1340.25 1108.63 1352.86 1097.58 1376.14 1095.83L1403.3 1093.7V1092.14C1403.3 1082.64 1397.48 1077.59 1386.81 1077.59C1374.2 1077.59 1367.41 1082.44 1367.41 1091.17H1342.58C1342.58 1069.25 1360.62 1054.9 1388.36 1054.9C1416.49 1054.9 1432.4 1070.61 1432.4 1098.35V1155H1406.02L1404.08 1142.2C1400.97 1151.12 1388.17 1157.52 1373.62 1157.52ZM1384.1 1135.41C1395.54 1135.41 1403.5 1129.78 1403.5 1118.72V1113.48L1388.36 1114.84C1375.37 1116.01 1370.71 1118.92 1370.71 1125.12C1370.71 1132.11 1374.98 1135.41 1384.1 1135.41ZM1520.57 1058V1086.13H1511.06C1493.99 1086.13 1483.71 1093.7 1483.71 1112.9V1155H1453.83V1058.19H1481.96L1483.51 1072.55C1487.59 1063.04 1496.12 1056.64 1509.12 1056.64C1512.61 1056.64 1516.49 1057.03 1520.57 1058ZM1565.55 1155H1535.67V1058H1563.61L1565.55 1068.09C1570.4 1061.3 1579.91 1054.9 1593.87 1054.9C1608.42 1054.9 1617.74 1061.69 1623.36 1071.97C1628.41 1061.69 1639.85 1054.9 1653.82 1054.9C1678.85 1054.9 1691.26 1069.45 1691.26 1091.56V1155H1661.39V1099.9C1661.39 1087.68 1654.98 1081.86 1645.48 1081.86C1636.94 1081.86 1628.41 1086.52 1628.41 1103.01V1155H1598.53V1099.9C1598.53 1087.88 1592.32 1082.06 1582.82 1082.06C1574.28 1082.06 1565.55 1086.71 1565.55 1103.01V1155ZM1791.51 1155L1753.68 1058H1785.89L1797.72 1091.95C1802.57 1106.11 1806.45 1118.33 1807.23 1122.8C1808.39 1117.17 1812.66 1104.56 1817.51 1091.95L1830.51 1058H1861.55L1821 1155H1791.51ZM1864.02 1124.35H1892.35C1892.73 1131.14 1897.78 1135.21 1906.9 1135.21C1916.21 1135.21 1920.48 1131.91 1920.48 1126.87C1920.48 1123.96 1918.92 1120.86 1911.75 1119.3L1893.9 1115.42C1876.05 1111.54 1867.32 1103.78 1867.32 1086.71C1867.32 1066.54 1884.59 1054.9 1907.87 1054.9C1930.37 1054.9 1946.08 1068.09 1946.08 1087.68H1917.76C1917.76 1081.09 1913.69 1076.62 1906.51 1076.62C1899.72 1076.62 1895.45 1080.12 1895.45 1085.35C1895.45 1089.82 1899.14 1092.34 1905.93 1093.89L1923.97 1097.77C1939.88 1101.26 1948.61 1108.63 1948.61 1124.15C1948.61 1144.91 1930.95 1157.52 1905.73 1157.52C1880.12 1157.52 1864.02 1143.94 1864.02 1124.35ZM2038.84 1155H2006.05L2057.27 1011.44H2087.92L2138.94 1155H2105.57L2095.49 1124.74H2049.12L2038.84 1155ZM2068.52 1067.7L2058.24 1098.35H2086.56L2076.28 1067.7C2074.73 1062.85 2072.98 1057.22 2072.4 1053.73C2071.82 1057.03 2070.27 1062.46 2068.52 1067.7ZM2181.84 1155H2151.96V1008.72H2181.84V1155ZM2243.44 1155H2213.57V1082.83H2195.14V1058H2213.57V1027.93H2243.44V1058H2261.87V1082.83H2243.44V1155ZM2319.36 1157.52C2290.07 1157.52 2269.11 1136.18 2269.11 1106.31C2269.11 1076.04 2289.48 1054.9 2318.78 1054.9C2349.24 1054.9 2368.25 1074.88 2368.25 1106.5V1114.07L2297.83 1114.45C2299.57 1127.26 2306.75 1133.27 2319.94 1133.27C2331.19 1133.27 2339.15 1129.2 2341.28 1122.21H2368.64C2365.14 1143.75 2345.94 1157.52 2319.36 1157.52ZM2318.97 1079.15C2307.14 1079.15 2300.54 1084.38 2298.21 1096.02H2338.57C2338.57 1085.74 2331 1079.15 2318.97 1079.15ZM2452.68 1058V1086.13H2443.17C2426.1 1086.13 2415.82 1093.7 2415.82 1112.9V1155H2385.94V1058.19H2414.07L2415.62 1072.55C2419.7 1063.04 2428.23 1056.64 2441.23 1056.64C2444.72 1056.64 2448.6 1057.03 2452.68 1058ZM2497.66 1155H2467.78V1058H2495.91L2497.85 1068.09C2503.87 1059.75 2514.93 1054.9 2527.54 1054.9C2550.62 1054.9 2564.01 1069.64 2564.01 1095.05V1155H2534.13V1102.23C2534.13 1090.01 2527.34 1082.06 2517.06 1082.06C2505.23 1082.06 2497.66 1089.82 2497.66 1101.84V1155ZM2614.73 1157.52C2594.16 1157.52 2581.36 1145.49 2581.36 1126.48C2581.36 1108.63 2593.97 1097.58 2617.25 1095.83L2644.41 1093.7V1092.14C2644.41 1082.64 2638.59 1077.59 2627.92 1077.59C2615.31 1077.59 2608.52 1082.44 2608.52 1091.17H2583.69C2583.69 1069.25 2601.73 1054.9 2629.47 1054.9C2657.6 1054.9 2673.51 1070.61 2673.51 1098.35V1155H2647.13L2645.19 1142.2C2642.08 1151.12 2629.28 1157.52 2614.73 1157.52ZM2625.2 1135.41C2636.65 1135.41 2644.6 1129.78 2644.6 1118.72V1113.48L2629.47 1114.84C2616.47 1116.01 2611.82 1118.92 2611.82 1125.12C2611.82 1132.11 2616.09 1135.41 2625.2 1135.41ZM2733.18 1155H2703.3V1082.83H2684.87V1058H2703.3V1027.93H2733.18V1058H2751.61V1082.83H2733.18V1155ZM2779.78 1042.87C2770.27 1042.87 2762.71 1035.3 2762.71 1025.8C2762.71 1016.29 2770.27 1008.92 2779.78 1008.92C2789.09 1008.92 2796.66 1016.29 2796.66 1025.8C2796.66 1035.3 2789.09 1042.87 2779.78 1042.87ZM2765.04 1155V1058H2794.91V1155H2765.04ZM2844.87 1155L2807.04 1058H2839.25L2851.08 1091.95C2855.93 1106.11 2859.81 1118.33 2860.59 1122.8C2861.75 1117.17 2866.02 1104.56 2870.87 1091.95L2883.87 1058H2914.91L2874.36 1155H2844.87ZM2967.29 1157.52C2938 1157.52 2917.04 1136.18 2917.04 1106.31C2917.04 1076.04 2937.41 1054.9 2966.71 1054.9C2997.17 1054.9 3016.18 1074.88 3016.18 1106.5V1114.07L2945.76 1114.45C2947.5 1127.26 2954.68 1133.27 2967.87 1133.27C2979.12 1133.27 2987.08 1129.2 2989.21 1122.21H3016.57C3013.07 1143.75 2993.87 1157.52 2967.29 1157.52ZM2966.9 1079.15C2955.07 1079.15 2948.47 1084.38 2946.14 1096.02H2986.5C2986.5 1085.74 2978.93 1079.15 2966.9 1079.15ZM3026.89 1124.35H3055.21C3055.6 1131.14 3060.64 1135.21 3069.76 1135.21C3079.07 1135.21 3083.34 1131.91 3083.34 1126.87C3083.34 1123.96 3081.79 1120.86 3074.61 1119.3L3056.76 1115.42C3038.91 1111.54 3030.18 1103.78 3030.18 1086.71C3030.18 1066.54 3047.45 1054.9 3070.73 1054.9C3093.23 1054.9 3108.95 1068.09 3108.95 1087.68H3080.62C3080.62 1081.09 3076.55 1076.62 3069.37 1076.62C3062.58 1076.62 3058.31 1080.12 3058.31 1085.35C3058.31 1089.82 3062 1092.34 3068.79 1093.89L3086.83 1097.77C3102.74 1101.26 3111.47 1108.63 3111.47 1124.15C3111.47 1144.91 3093.82 1157.52 3068.6 1157.52C3042.99 1157.52 3026.89 1143.94 3026.89 1124.35Z" fill="#FEFEFA"/>
</svg>
