<svg width="3840" height="2160" viewBox="0 0 3840 2160" fill="none" xmlns="http://www.w3.org/2000/svg">
<rect width="3840" height="2160" fill="#FF7538"/>
<rect x="3218" y="1972" width="539.93" height="113.732" rx="35.9155" fill="#FEFEFA"/>
<rect x="3283.85" y="1992.8" width="69.7755" height="72.7178" rx="12.6101" fill="#FF7538"/>
<path d="M3338.64 2046.41C3338.64 2047.57 3338.18 2048.69 3337.36 2049.51C3336.54 2050.33 3335.42 2050.79 3334.26 2050.79H3303.6C3302.44 2050.79 3301.32 2050.33 3300.5 2049.51C3299.68 2048.69 3299.22 2047.57 3299.22 2046.41C3299.22 2042.92 3300.6 2039.58 3303.07 2037.12C3305.53 2034.65 3308.87 2033.27 3312.36 2033.27H3325.5C3328.99 2033.27 3332.33 2034.65 3334.79 2037.12C3337.26 2039.58 3338.64 2042.92 3338.64 2046.41ZM3318.93 2028.89C3321.1 2028.89 3323.21 2028.25 3325.01 2027.04C3326.81 2025.84 3328.22 2024.13 3329.05 2022.13C3329.88 2020.13 3330.09 2017.93 3329.67 2015.8C3329.25 2013.68 3328.2 2011.73 3326.67 2010.2C3325.14 2008.66 3323.19 2007.62 3321.07 2007.2C3318.94 2006.78 3316.74 2006.99 3314.74 2007.82C3312.74 2008.65 3311.03 2010.05 3309.83 2011.85C3308.62 2013.66 3307.98 2015.77 3307.98 2017.94C3307.98 2020.84 3309.13 2023.63 3311.19 2025.68C3313.24 2027.74 3316.03 2028.89 3318.93 2028.89Z" fill="#FEFEFA"/>
<path d="M3374.97 2035.76V2006.51H3385.23V2035.07C3385.23 2040.96 3388.46 2044.18 3394.22 2044.18C3400.05 2044.18 3403.34 2040.83 3403.34 2035.07V2006.51H3413.6V2035.76C3413.6 2046.91 3406 2054.13 3394.22 2054.13C3382.51 2054.13 3374.97 2046.97 3374.97 2035.76ZM3444.11 2015.37C3435.63 2015.37 3431.26 2021.33 3431.26 2030.38C3431.26 2039.82 3436.58 2044.5 3444.05 2044.5C3451.77 2044.5 3455.19 2040.32 3455.64 2035.45H3443.23V2026.46H3465.26V2053.37H3456.46L3455.89 2049.12C3453.36 2052.1 3448.29 2054.06 3442.72 2054.06C3429.61 2054.06 3420.43 2044.44 3420.43 2030.06C3420.43 2015.94 3429.87 2005.75 3444.37 2005.75C3455.57 2005.75 3464.18 2012.34 3465.26 2022.47H3454.5C3453.29 2017.53 3448.99 2015.37 3444.11 2015.37ZM3493.99 2054.13C3479.94 2054.13 3471.14 2044.82 3471.14 2030C3471.14 2015.37 3480.44 2005.75 3494.44 2005.75C3506.15 2005.75 3514.57 2012.46 3516.03 2022.97H3505.2C3503.81 2018.29 3499.82 2015.63 3494.18 2015.63C3486.59 2015.63 3481.96 2021.01 3481.96 2029.94C3481.96 2038.74 3486.65 2044.25 3494.18 2044.25C3499.95 2044.25 3504.19 2041.4 3505.46 2036.78H3516.09C3514.45 2047.22 3505.71 2054.13 3493.99 2054.13ZM3566.43 2035.07H3549.97V2053.37H3539.71V2006.51H3569.53V2016.01H3549.97V2025.82H3566.43V2035.07ZM3582.39 2054.19C3575.68 2054.19 3571.5 2050.26 3571.5 2044.06C3571.5 2038.23 3575.61 2034.62 3583.21 2034.05L3592.08 2033.36V2032.85C3592.08 2029.75 3590.18 2028.1 3586.69 2028.1C3582.58 2028.1 3580.36 2029.68 3580.36 2032.53H3572.26C3572.26 2025.38 3578.14 2020.69 3587.2 2020.69C3596.38 2020.69 3601.57 2025.82 3601.57 2034.88V2053.37H3592.96L3592.33 2049.19C3591.32 2052.1 3587.14 2054.19 3582.39 2054.19ZM3585.81 2046.97C3589.54 2046.97 3592.14 2045.13 3592.14 2041.53V2039.82L3587.2 2040.26C3582.96 2040.64 3581.44 2041.59 3581.44 2043.62C3581.44 2045.89 3582.83 2046.97 3585.81 2046.97ZM3630.35 2021.71V2030.89H3627.25C3621.67 2030.89 3618.32 2033.36 3618.32 2039.63V2053.37H3608.57V2021.77H3617.75L3618.25 2026.46C3619.58 2023.35 3622.37 2021.26 3626.61 2021.26C3627.75 2021.26 3629.02 2021.39 3630.35 2021.71ZM3645.03 2053.37H3635.28V2021.71H3644.4L3645.03 2025C3646.61 2022.78 3649.72 2020.69 3654.28 2020.69C3659.02 2020.69 3662.06 2022.91 3663.9 2026.27C3665.55 2022.91 3669.28 2020.69 3673.84 2020.69C3682.01 2020.69 3686.06 2025.44 3686.06 2032.66V2053.37H3676.31V2035.38C3676.31 2031.39 3674.22 2029.49 3671.12 2029.49C3668.33 2029.49 3665.55 2031.01 3665.55 2036.4V2053.37H3655.8V2035.38C3655.8 2031.46 3653.77 2029.56 3650.67 2029.56C3647.88 2029.56 3645.03 2031.08 3645.03 2036.4V2053.37Z" fill="#FF7538"/>
<path d="M1038.21 1040.54V1011.44H1151.12V1040.54H1110.38V1155H1078.95V1040.54H1038.21ZM1181.01 1042.87C1171.5 1042.87 1163.94 1035.3 1163.94 1025.8C1163.94 1016.29 1171.5 1008.92 1181.01 1008.92C1190.32 1008.92 1197.89 1016.29 1197.89 1025.8C1197.89 1035.3 1190.32 1042.87 1181.01 1042.87ZM1166.27 1155V1058H1196.14V1155H1166.27ZM1248.43 1155H1218.56V1008.72H1248.43V1092.92L1279.86 1058H1317.3L1280.83 1096.41L1316.14 1155H1281.61L1259.88 1118.72L1248.43 1130.75V1155ZM1314.44 1040.54V1011.44H1427.34V1040.54H1386.6V1155H1355.18V1040.54H1314.44ZM1419.82 1106.31C1419.82 1075.65 1442.33 1055.09 1473.37 1055.09C1504.21 1055.09 1526.72 1075.65 1526.72 1106.31C1526.72 1136.96 1504.21 1157.33 1473.37 1157.33C1442.33 1157.33 1419.82 1136.96 1419.82 1106.31ZM1449.89 1106.11C1449.89 1120.86 1459.4 1130.56 1473.37 1130.56C1487.14 1130.56 1496.65 1120.86 1496.65 1106.11C1496.65 1091.56 1487.14 1081.86 1473.37 1081.86C1459.4 1081.86 1449.89 1091.56 1449.89 1106.11ZM1573.91 1155H1544.04V1008.72H1573.91V1092.92L1605.34 1058H1642.78L1606.31 1096.41L1641.62 1155H1607.09L1585.36 1118.72L1573.91 1130.75V1155ZM1729.68 1155H1696.89L1748.11 1011.44H1778.76L1829.78 1155H1796.41L1786.33 1124.74H1739.96L1729.68 1155ZM1759.36 1067.7L1749.08 1098.35H1777.4L1767.12 1067.7C1765.57 1062.85 1763.82 1057.22 1763.24 1053.73C1762.66 1057.03 1761.11 1062.46 1759.36 1067.7ZM1872.68 1155H1842.8V1008.72H1872.68V1155ZM1934.28 1155H1904.4V1082.83H1885.97V1058H1904.4V1027.93H1934.28V1058H1952.71V1082.83H1934.28V1155ZM2010.2 1157.52C1980.9 1157.52 1959.95 1136.18 1959.95 1106.31C1959.95 1076.04 1980.32 1054.9 2009.62 1054.9C2040.07 1054.9 2059.09 1074.88 2059.09 1106.5V1114.07L1988.66 1114.45C1990.41 1127.26 1997.59 1133.27 2010.78 1133.27C2022.03 1133.27 2029.99 1129.2 2032.12 1122.21H2059.47C2055.98 1143.75 2036.78 1157.52 2010.2 1157.52ZM2009.81 1079.15C1997.98 1079.15 1991.38 1084.38 1989.05 1096.02H2029.4C2029.4 1085.74 2021.84 1079.15 2009.81 1079.15ZM2143.51 1058V1086.13H2134.01C2116.94 1086.13 2106.65 1093.7 2106.65 1112.9V1155H2076.78V1058.19H2104.91L2106.46 1072.55C2110.53 1063.04 2119.07 1056.64 2132.07 1056.64C2135.56 1056.64 2139.44 1057.03 2143.51 1058ZM2188.5 1155H2158.62V1058H2186.75L2188.69 1068.09C2194.71 1059.75 2205.76 1054.9 2218.37 1054.9C2241.46 1054.9 2254.85 1069.64 2254.85 1095.05V1155H2224.97V1102.23C2224.97 1090.01 2218.18 1082.06 2207.9 1082.06C2196.06 1082.06 2188.5 1089.82 2188.5 1101.84V1155ZM2305.57 1157.52C2285 1157.52 2272.2 1145.49 2272.2 1126.48C2272.2 1108.63 2284.81 1097.58 2308.09 1095.83L2335.25 1093.7V1092.14C2335.25 1082.64 2329.43 1077.59 2318.76 1077.59C2306.15 1077.59 2299.36 1082.44 2299.36 1091.17H2274.53C2274.53 1069.25 2292.57 1054.9 2320.31 1054.9C2348.44 1054.9 2364.35 1070.61 2364.35 1098.35V1155H2337.96L2336.02 1142.2C2332.92 1151.12 2320.12 1157.52 2305.57 1157.52ZM2316.04 1135.41C2327.49 1135.41 2335.44 1129.78 2335.44 1118.72V1113.48L2320.31 1114.84C2307.31 1116.01 2302.66 1118.92 2302.66 1125.12C2302.66 1132.11 2306.92 1135.41 2316.04 1135.41ZM2424.02 1155H2394.14V1082.83H2375.71V1058H2394.14V1027.93H2424.02V1058H2442.45V1082.83H2424.02V1155ZM2470.62 1042.87C2461.11 1042.87 2453.55 1035.3 2453.55 1025.8C2453.55 1016.29 2461.11 1008.92 2470.62 1008.92C2479.93 1008.92 2487.5 1016.29 2487.5 1025.8C2487.5 1035.3 2479.93 1042.87 2470.62 1042.87ZM2455.87 1155V1058H2485.75V1155H2455.87ZM2535.71 1155L2497.88 1058H2530.09L2541.92 1091.95C2546.77 1106.11 2550.65 1118.33 2551.43 1122.8C2552.59 1117.17 2556.86 1104.56 2561.71 1091.95L2574.71 1058H2605.75L2565.2 1155H2535.71ZM2658.13 1157.52C2628.83 1157.52 2607.88 1136.18 2607.88 1106.31C2607.88 1076.04 2628.25 1054.9 2657.55 1054.9C2688 1054.9 2707.02 1074.88 2707.02 1106.5V1114.07L2636.59 1114.45C2638.34 1127.26 2645.52 1133.27 2658.71 1133.27C2669.96 1133.27 2677.92 1129.2 2680.05 1122.21H2707.4C2703.91 1143.75 2684.71 1157.52 2658.13 1157.52ZM2657.74 1079.15C2645.91 1079.15 2639.31 1084.38 2636.98 1096.02H2677.33C2677.33 1085.74 2669.77 1079.15 2657.74 1079.15ZM2717.72 1124.35H2746.05C2746.44 1131.14 2751.48 1135.21 2760.6 1135.21C2769.91 1135.21 2774.18 1131.91 2774.18 1126.87C2774.18 1123.96 2772.63 1120.86 2765.45 1119.3L2747.6 1115.42C2729.75 1111.54 2721.02 1103.78 2721.02 1086.71C2721.02 1066.54 2738.29 1054.9 2761.57 1054.9C2784.07 1054.9 2799.79 1068.09 2799.79 1087.68H2771.46C2771.46 1081.09 2767.39 1076.62 2760.21 1076.62C2753.42 1076.62 2749.15 1080.12 2749.15 1085.35C2749.15 1089.82 2752.84 1092.34 2759.63 1093.89L2777.67 1097.77C2793.58 1101.26 2802.31 1108.63 2802.31 1124.15C2802.31 1144.91 2784.65 1157.52 2759.43 1157.52C2733.83 1157.52 2717.72 1143.94 2717.72 1124.35Z" fill="#FEFEFA"/>
</svg>
