<svg width="142" height="147" viewBox="0 0 142 147" fill="none" xmlns="http://www.w3.org/2000/svg">
<rect width="141.052" height="147" rx="25.4913" fill="#FF7538"/>
<path d="M110.77 108.379C110.77 110.727 109.837 112.979 108.176 114.64C106.516 116.301 104.263 117.233 101.915 117.233H39.9337C37.5854 117.233 35.3332 116.301 33.6726 114.64C32.0121 112.979 31.0792 110.727 31.0792 108.379C31.0792 101.334 33.8779 94.5774 38.8595 89.5957C43.8411 84.6141 50.5976 81.8155 57.6427 81.8155H84.2062C91.2512 81.8155 98.0078 84.6141 102.989 89.5957C107.971 94.5774 110.77 101.334 110.77 108.379ZM70.9244 72.961C75.3026 72.961 79.5824 71.6627 83.2227 69.2304C86.8629 66.798 89.7002 63.3408 91.3756 59.2959C93.0511 55.2511 93.4894 50.8002 92.6353 46.5062C91.7812 42.2122 89.6729 38.2679 86.5771 35.1721C83.4813 32.0763 79.537 29.968 75.243 29.1139C70.949 28.2598 66.4981 28.6981 62.4533 30.3736C58.4084 32.049 54.9512 34.8863 52.5188 38.5265C50.0865 42.1668 48.7882 46.4466 48.7882 50.8248C48.7882 56.6957 51.1204 62.3261 55.2718 66.4774C59.4231 70.6288 65.0535 72.961 70.9244 72.961Z" fill="#FEFEFA"/>
</svg>
