<svg width="814" height="147" viewBox="0 0 814 147" fill="none" xmlns="http://www.w3.org/2000/svg">
<rect width="141.052" height="147" rx="25.4913" fill="#FF7538"/>
<path d="M110.77 108.379C110.77 110.727 109.837 112.979 108.176 114.64C106.516 116.301 104.263 117.233 101.915 117.233H39.9337C37.5854 117.233 35.3332 116.301 33.6726 114.64C32.0121 112.979 31.0792 110.727 31.0792 108.379C31.0792 101.334 33.8779 94.5774 38.8595 89.5957C43.8411 84.6141 50.5976 81.8155 57.6427 81.8155H84.2062C91.2512 81.8155 98.0078 84.6141 102.989 89.5957C107.971 94.5774 110.77 101.334 110.77 108.379ZM70.9244 72.961C75.3026 72.961 79.5824 71.6627 83.2227 69.2304C86.8629 66.798 89.7002 63.3408 91.3756 59.2959C93.0511 55.2511 93.4894 50.8002 92.6353 46.5062C91.7812 42.2122 89.6729 38.2679 86.5771 35.1721C83.4813 32.0763 79.537 29.968 75.243 29.1139C70.949 28.2598 66.4981 28.6981 62.4533 30.3736C58.4084 32.049 54.9512 34.8863 52.5188 38.5265C50.0865 42.1668 48.7882 46.4466 48.7882 50.8248C48.7882 56.6957 51.1204 62.3261 55.2718 66.4774C59.4231 70.6288 65.0535 72.961 70.9244 72.961Z" fill="#FEFEFA"/>
<path d="M184.216 87.416V28.28H204.952V86.008C204.952 97.912 211.48 104.44 223.128 104.44C234.904 104.44 241.56 97.656 241.56 86.008V28.28H262.296V87.416C262.296 109.944 246.936 124.536 223.128 124.536C199.448 124.536 184.216 110.072 184.216 87.416ZM323.98 46.2C306.828 46.2 297.996 58.232 297.996 76.536C297.996 95.608 308.748 105.08 323.852 105.08C339.468 105.08 346.38 96.632 347.276 86.776H322.188V68.6H366.732V123H348.94L347.788 114.424C342.668 120.44 332.428 124.408 321.164 124.408C294.668 124.408 276.108 104.952 276.108 75.896C276.108 47.352 295.18 26.744 324.492 26.744C347.148 26.744 364.556 40.056 366.732 60.536H344.972C342.54 50.552 333.836 46.2 323.98 46.2ZM424.816 124.536C396.4 124.536 378.608 105.72 378.608 75.768C378.608 46.2 397.424 26.744 425.712 26.744C449.392 26.744 466.416 40.312 469.36 61.56H447.472C444.656 52.088 436.592 46.712 425.2 46.712C409.84 46.712 400.496 57.592 400.496 75.64C400.496 93.432 409.968 104.568 425.2 104.568C436.848 104.568 445.424 98.808 447.984 89.464H469.488C466.16 110.584 448.496 124.536 424.816 124.536ZM571.247 86.008H537.967V123H517.231V28.28H577.519V47.48H537.967V67.32H571.247V86.008ZM603.502 124.664C589.934 124.664 581.486 116.728 581.486 104.184C581.486 92.408 589.806 85.112 605.166 83.96L623.086 82.552V81.528C623.086 75.256 619.246 71.928 612.206 71.928C603.886 71.928 599.406 75.128 599.406 80.888H583.022C583.022 66.424 594.926 56.952 613.23 56.952C631.79 56.952 642.286 67.32 642.286 85.624V123H624.878L623.598 114.552C621.55 120.44 613.102 124.664 603.502 124.664ZM610.414 110.072C617.966 110.072 623.214 106.36 623.214 99.064V95.608L613.23 96.504C604.654 97.272 601.582 99.192 601.582 103.288C601.582 107.896 604.398 110.072 610.414 110.072ZM700.456 59V77.56H694.184C682.92 77.56 676.136 82.552 676.136 95.224V123H656.424V59.128H674.984L676.008 68.6C678.696 62.328 684.328 58.104 692.904 58.104C695.208 58.104 697.768 58.36 700.456 59ZM730.136 123H710.424V59H728.856L730.136 65.656C733.336 61.176 739.608 56.952 748.824 56.952C758.424 56.952 764.568 61.432 768.28 68.216C771.608 61.432 779.16 56.952 788.376 56.952C804.888 56.952 813.08 66.552 813.08 81.144V123H793.368V86.648C793.368 78.584 789.144 74.744 782.872 74.744C777.24 74.744 771.608 77.816 771.608 88.696V123H751.896V86.648C751.896 78.712 747.8 74.872 741.528 74.872C735.896 74.872 730.136 77.944 730.136 88.696V123Z" fill="#FF7538"/>
</svg>
