<svg width="3840" height="2160" viewBox="0 0 3840 2160" fill="none" xmlns="http://www.w3.org/2000/svg">
<rect width="3840" height="2160" fill="#FF7538"/>
<rect x="3218" y="1972" width="539.93" height="113.732" rx="35.9155" fill="#FEFEFA"/>
<rect x="3283.85" y="1992.8" width="69.7755" height="72.7178" rx="12.6101" fill="#FF7538"/>
<path d="M3338.64 2046.41C3338.64 2047.57 3338.18 2048.69 3337.36 2049.51C3336.54 2050.33 3335.42 2050.79 3334.26 2050.79H3303.6C3302.44 2050.79 3301.32 2050.33 3300.5 2049.51C3299.68 2048.69 3299.22 2047.57 3299.22 2046.41C3299.22 2042.92 3300.6 2039.58 3303.07 2037.12C3305.53 2034.65 3308.87 2033.27 3312.36 2033.27H3325.5C3328.99 2033.27 3332.33 2034.65 3334.79 2037.12C3337.26 2039.58 3338.64 2042.92 3338.64 2046.41ZM3318.93 2028.89C3321.1 2028.89 3323.21 2028.25 3325.01 2027.04C3326.81 2025.84 3328.22 2024.13 3329.05 2022.13C3329.88 2020.13 3330.09 2017.93 3329.67 2015.8C3329.25 2013.68 3328.2 2011.73 3326.67 2010.2C3325.14 2008.66 3323.19 2007.62 3321.07 2007.2C3318.94 2006.78 3316.74 2006.99 3314.74 2007.82C3312.74 2008.65 3311.03 2010.05 3309.83 2011.85C3308.62 2013.66 3307.98 2015.77 3307.98 2017.94C3307.98 2020.84 3309.13 2023.63 3311.19 2025.68C3313.24 2027.74 3316.03 2028.89 3318.93 2028.89Z" fill="#FEFEFA"/>
<path d="M3374.97 2035.76V2006.51H3385.23V2035.07C3385.23 2040.96 3388.46 2044.18 3394.22 2044.18C3400.05 2044.18 3403.34 2040.83 3403.34 2035.07V2006.51H3413.6V2035.76C3413.6 2046.91 3406 2054.13 3394.22 2054.13C3382.51 2054.13 3374.97 2046.97 3374.97 2035.76ZM3444.11 2015.37C3435.63 2015.37 3431.26 2021.33 3431.26 2030.38C3431.26 2039.82 3436.58 2044.5 3444.05 2044.5C3451.77 2044.5 3455.19 2040.32 3455.64 2035.45H3443.23V2026.46H3465.26V2053.37H3456.46L3455.89 2049.12C3453.36 2052.1 3448.29 2054.06 3442.72 2054.06C3429.61 2054.06 3420.43 2044.44 3420.43 2030.06C3420.43 2015.94 3429.87 2005.75 3444.37 2005.75C3455.57 2005.75 3464.18 2012.34 3465.26 2022.47H3454.5C3453.29 2017.53 3448.99 2015.37 3444.11 2015.37ZM3493.99 2054.13C3479.94 2054.13 3471.14 2044.82 3471.14 2030C3471.14 2015.37 3480.44 2005.75 3494.44 2005.75C3506.15 2005.75 3514.57 2012.46 3516.03 2022.97H3505.2C3503.81 2018.29 3499.82 2015.63 3494.18 2015.63C3486.59 2015.63 3481.96 2021.01 3481.96 2029.94C3481.96 2038.74 3486.65 2044.25 3494.18 2044.25C3499.95 2044.25 3504.19 2041.4 3505.46 2036.78H3516.09C3514.45 2047.22 3505.71 2054.13 3493.99 2054.13ZM3566.43 2035.07H3549.97V2053.37H3539.71V2006.51H3569.53V2016.01H3549.97V2025.82H3566.43V2035.07ZM3582.39 2054.19C3575.68 2054.19 3571.5 2050.26 3571.5 2044.06C3571.5 2038.23 3575.61 2034.62 3583.21 2034.05L3592.08 2033.36V2032.85C3592.08 2029.75 3590.18 2028.1 3586.69 2028.1C3582.58 2028.1 3580.36 2029.68 3580.36 2032.53H3572.26C3572.26 2025.38 3578.14 2020.69 3587.2 2020.69C3596.38 2020.69 3601.57 2025.82 3601.57 2034.88V2053.37H3592.96L3592.33 2049.19C3591.32 2052.1 3587.14 2054.19 3582.39 2054.19ZM3585.81 2046.97C3589.54 2046.97 3592.14 2045.13 3592.14 2041.53V2039.82L3587.2 2040.26C3582.96 2040.64 3581.44 2041.59 3581.44 2043.62C3581.44 2045.89 3582.83 2046.97 3585.81 2046.97ZM3630.35 2021.71V2030.89H3627.25C3621.67 2030.89 3618.32 2033.36 3618.32 2039.63V2053.37H3608.57V2021.77H3617.75L3618.25 2026.46C3619.58 2023.35 3622.37 2021.26 3626.61 2021.26C3627.75 2021.26 3629.02 2021.39 3630.35 2021.71ZM3645.03 2053.37H3635.28V2021.71H3644.4L3645.03 2025C3646.61 2022.78 3649.72 2020.69 3654.28 2020.69C3659.02 2020.69 3662.06 2022.91 3663.9 2026.27C3665.55 2022.91 3669.28 2020.69 3673.84 2020.69C3682.01 2020.69 3686.06 2025.44 3686.06 2032.66V2053.37H3676.31V2035.38C3676.31 2031.39 3674.22 2029.49 3671.12 2029.49C3668.33 2029.49 3665.55 2031.01 3665.55 2036.4V2053.37H3655.8V2035.38C3655.8 2031.46 3653.77 2029.56 3650.67 2029.56C3647.88 2029.56 3645.03 2031.08 3645.03 2036.4V2053.37Z" fill="#FF7538"/>
<path d="M1220.06 1040.54V1011.44H1332.97V1040.54H1292.23V1155H1260.8V1040.54H1220.06ZM1362.86 1042.87C1353.35 1042.87 1345.79 1035.3 1345.79 1025.8C1345.79 1016.29 1353.35 1008.92 1362.86 1008.92C1372.17 1008.92 1379.74 1016.29 1379.74 1025.8C1379.74 1035.3 1372.17 1042.87 1362.86 1042.87ZM1348.12 1155V1058H1377.99V1155H1348.12ZM1430.28 1155H1400.4V1008.72H1430.28V1092.92L1461.71 1058H1499.15L1462.68 1096.41L1497.99 1155H1463.45L1441.73 1118.72L1430.28 1130.75V1155ZM1496.28 1040.54V1011.44H1609.19V1040.54H1568.45V1155H1537.02V1040.54H1496.28ZM1601.67 1106.31C1601.67 1075.65 1624.17 1055.09 1655.21 1055.09C1686.06 1055.09 1708.56 1075.65 1708.56 1106.31C1708.56 1136.96 1686.06 1157.33 1655.21 1157.33C1624.17 1157.33 1601.67 1136.96 1601.67 1106.31ZM1631.74 1106.11C1631.74 1120.86 1641.25 1130.56 1655.21 1130.56C1668.99 1130.56 1678.49 1120.86 1678.49 1106.11C1678.49 1091.56 1668.99 1081.86 1655.21 1081.86C1641.25 1081.86 1631.74 1091.56 1631.74 1106.11ZM1755.76 1155H1725.88V1008.72H1755.76V1092.92L1787.19 1058H1824.63L1788.16 1096.41L1823.47 1155H1788.93L1767.21 1118.72L1755.76 1130.75V1155ZM1902.99 1042.87C1893.48 1042.87 1885.92 1035.3 1885.92 1025.8C1885.92 1016.29 1893.48 1008.92 1902.99 1008.92C1912.3 1008.92 1919.87 1016.29 1919.87 1025.8C1919.87 1035.3 1912.3 1042.87 1902.99 1042.87ZM1888.25 1155V1058H1918.12V1155H1888.25ZM1933.55 1124.35H1961.88C1962.26 1131.14 1967.31 1135.21 1976.43 1135.21C1985.74 1135.21 1990.01 1131.91 1990.01 1126.87C1990.01 1123.96 1988.45 1120.86 1981.28 1119.3L1963.43 1115.42C1945.58 1111.54 1936.85 1103.78 1936.85 1086.71C1936.85 1066.54 1954.12 1054.9 1977.4 1054.9C1999.9 1054.9 2015.61 1068.09 2015.61 1087.68H1987.29C1987.29 1081.09 1983.22 1076.62 1976.04 1076.62C1969.25 1076.62 1964.98 1080.12 1964.98 1085.35C1964.98 1089.82 1968.67 1092.34 1975.46 1093.89L1993.5 1097.77C2009.41 1101.26 2018.14 1108.63 2018.14 1124.15C2018.14 1144.91 2000.48 1157.52 1975.26 1157.52C1949.65 1157.52 1933.55 1143.94 1933.55 1124.35ZM2145.03 1155H2088.77V1011.44H2143.09C2185.19 1011.44 2214.49 1040.93 2214.49 1083.61C2214.49 1125.51 2185.97 1155 2145.03 1155ZM2139.99 1040.54H2120.2V1125.9H2141.93C2166.76 1125.9 2181.31 1110.19 2181.31 1083.61C2181.31 1056.45 2165.99 1040.54 2139.99 1040.54ZM2224.91 1201.56V1176.53H2241.4C2251.49 1176.53 2255.76 1173.43 2259.64 1162.95L2261.38 1158.3L2222.39 1058H2254.4L2275.55 1120.27L2299.02 1058H2330.06L2280.78 1176.15C2272.64 1195.93 2261.77 1204.28 2244.7 1204.28C2237.52 1204.28 2230.73 1203.31 2224.91 1201.56ZM2357.11 1042.87C2347.6 1042.87 2340.04 1035.3 2340.04 1025.8C2340.04 1016.29 2347.6 1008.92 2357.11 1008.92C2366.42 1008.92 2373.99 1016.29 2373.99 1025.8C2373.99 1035.3 2366.42 1042.87 2357.11 1042.87ZM2342.37 1155V1058H2372.24V1155H2342.37ZM2424.53 1155H2394.65V1058H2422.78L2424.72 1068.09C2430.74 1059.75 2441.8 1054.9 2454.41 1054.9C2477.49 1054.9 2490.88 1069.64 2490.88 1095.05V1155H2461V1102.23C2461 1090.01 2454.21 1082.06 2443.93 1082.06C2432.1 1082.06 2424.53 1089.82 2424.53 1101.84V1155ZM2507.45 1104.75C2507.45 1075.27 2526.66 1054.7 2554.01 1054.7C2567.21 1054.7 2577.68 1059.75 2582.92 1067.7L2584.47 1058H2612.6V1148.79C2612.6 1183.52 2592.62 1204.47 2559.45 1204.47C2529.76 1204.47 2509.78 1187.59 2507.07 1160.04H2537.33C2537.91 1170.91 2546.06 1177.31 2559.25 1177.31C2573.61 1177.31 2582.73 1168.77 2582.73 1155V1142.39C2576.91 1149.37 2566.04 1153.84 2553.43 1153.84C2526.27 1153.84 2507.45 1133.85 2507.45 1104.75ZM2537.52 1103.98C2537.52 1117.95 2546.84 1127.84 2560.03 1127.84C2573.61 1127.84 2582.73 1118.33 2582.73 1103.98C2582.73 1089.82 2573.61 1080.7 2559.83 1080.7C2546.64 1080.7 2537.52 1090.2 2537.52 1103.98Z" fill="#FEFEFA"/>
</svg>
