<svg version="1.1" id="Layer_1" xmlns="http://www.w3.org/2000/svg" x="0" y="0" viewBox="0 0 1000 1000" xml:space="preserve"><style>.st5{fill:#020202}.st8{fill:#fff}.st9{fill:#ee2353}.st10{fill:#6bcad0}</style><path class="st5" d="M630.7 327.5c-1.3-1.5-2.5-3-3.7-4.6 1.2 1.6 2.5 3.1 3.7 4.6M460.8 661.9c-1.3-.3-2.5-.7-3.8-1.1 1.2.3 2.5.7 3.8 1.1m155.3-356.4c3.1 6.2 6.8 12 10.9 17.4-4.1-5.4-7.8-11.3-10.9-17.4M453.3 659.3c-1.2-.5-2.4-1-3.6-1.6 1.2.6 2.4 1.2 3.6 1.6m25.5 5c35.2 0 64.2-26.7 67.8-61-3.6 34.2-32.6 61-67.8 61m-35.9-10.2c1.6 1 3.3 2 5.1 2.8-1.7-.8-3.4-1.8-5.1-2.8m274-269.5c-7-1.5-13.8-3.7-20.3-6.4 6.5 2.8 13.3 4.9 20.3 6.4m-82.3-52.7c-1.3-1.4-2.6-2.9-3.9-4.4 1.3 1.5 2.6 3 3.9 4.4m61.5 46.1c-.9-.4-1.9-.8-2.8-1.3.9.5 1.8.9 2.8 1.3m-11.9-5.9c-.2-.1-.4-.2-.6-.4.2.1.4.3.6.4m7.8 4.1c-.7-.3-1.4-.7-2.1-1 .8.3 1.4.7 2.1 1m-3.9-2c-.5-.2-.9-.5-1.3-.7.4.2.8.5 1.3.7M473.4 510.7c.4.1.9.3 1.3.4-.5-.1-.9-.2-1.3-.4m2.5.8v-64.2zm-12.8-2.8c.3 0 .6.1.9.1-.3 0-.6 0-.9-.1m7.7 1.4c.5.1 1.1.3 1.6.4-.5-.1-1-.3-1.6-.4m-5.1-1c.4.1.8.1 1.3.2-.4-.1-.9-.1-1.3-.2m2.6.4 1.5.3c-.5 0-1-.2-1.5-.3m159.8-77.7"/><path class="st5" d="M500 122.7c-208.4 0-377.3 168.9-377.3 377.3S291.6 877.3 500 877.3 877.3 708.4 877.3 500 708.4 122.7 500 122.7m240.5 345c-41.9 0-80.7-13.3-112.4-36v164.5c0 82.3-66.8 149-149.1 149-41.8 0-79.5-17.2-106.6-44.8-39.9-26.8-66.1-72.2-66.1-123.8 0-82.3 66.8-149 149.1-149 6.8 0 13.7.5 20.5 1.4v18.3c7.9-.2 15.8.3 23.6 1.4v82.4c-6.7-2.1-13.7-3.2-20.7-3.2-37.7 0-68.2 30.5-68.2 68.2 0 14.9 4.9 29.4 13.9 41.3-22.3-11.2-37.5-34.3-37.5-60.9 0-37.6 30.5-68.2 68.2-68.2-37.7 0-68.2 30.5-68.2 68.2 0 26.6 15.3 49.7 37.5 60.9 5.1 6.6 11.3 12.3 18.4 16.7-7.1-4.4-13.4-10.1-18.4-16.7 9.2 4.7 19.6 7.3 30.7 7.3 37.6 0 68.1-30.4 68.2-67.9v-322h81.1V265q.45 4.65 1.2 9.3c1.9 11 5.5 21.5 10.4 31.2-4.9-9.7-8.4-20.2-10.4-31.2h22.4v10.4c2.3 25.3 12.9 48.1 29.1 65.8-8.3-5.2-15.9-11.4-22.6-18.6 6.7 7.1 14.3 13.4 22.6 18.6l1.8 1.8-1.8-1.8c17.9 11.2 38.6 17.1 59.7 17v80.7-63.5c7.8 1.6 15.7 2.5 23.6 2.5zm-280 40.8h.4z"/><path class="st9" d="M630.7 327.5c1.3 1.5 2.6 3 3.9 4.4 6.7 7.1 14.3 13.4 22.6 18.6-16.2-17.7-26.8-40.5-29.1-65.8v-10.4h-22.4c1.9 11 5.5 21.5 10.4 31.2 3.1 6.2 6.8 12 10.9 17.4 1.2 1.6 2.5 3.1 3.7 4.6m-154.8 184c-.4-.1-.8-.2-1.2-.4-.4-.1-.9-.3-1.3-.4-.3-.1-.6-.2-.9-.2-.5-.1-1.1-.3-1.6-.4-.3-.1-.7-.1-1-.2l-1.5-.3c-.4-.1-.9-.2-1.3-.2-.4-.1-.8-.2-1.3-.2-.6-.1-1.1-.2-1.7-.2-.3 0-.6-.1-.9-.1-.7-.1-1.5-.2-2.2-.2h-.4c-1.8-.1-3.5-.2-5.3-.2-37.7 0-68.2 30.5-68.2 68.2 0 26.6 15.3 49.7 37.5 60.9-9-11.9-13.9-26.4-13.9-41.3 0-37.6 30.5-68.2 68.2-68.2 7 0 14 1.1 20.7 3.2v-82.4c-7.8-1.1-15.7-1.5-23.6-1.4z"/><path class="st9" d="M716.9 448.1c-30.1 0-58.7-6.9-84.1-19.2-4.4-2.1-8.8-4.4-13-6.9-2.1-1.2-4.2-2.5-6.3-3.8-3.1-2-6.1-4-9.1-6.1v164.5c0 82.3-66.8 149-149.1 149-30.7 0-59.3-9.3-83-25.2 27.1 27.7 64.8 44.8 106.6 44.8 82.4 0 149.1-66.7 149.1-149V431.8c31.7 22.6 70.5 36 112.4 36v-80.6c-7.9 0-15.8-.8-23.6-2.5v63.4z"/><path class="st8" d="M455.4 725.7c82.3 0 149.1-66.7 149.1-149V412.2c3 2.1 6 4.2 9.1 6.1 2.1 1.3 4.2 2.6 6.3 3.8 4.2 2.5 8.6 4.8 13 6.9 25.4 12.3 54 19.2 84.1 19.2v-63.5c-7.1-1.5-13.9-3.7-20.3-6.4-.2-.1-.3-.1-.5-.2-.9-.4-1.9-.8-2.8-1.3l-1.2-.6c-.7-.3-1.4-.7-2.1-1-.6-.3-1.3-.6-1.9-.9-.5-.2-.9-.5-1.3-.7-.9-.5-1.7-.9-2.5-1.4-.2-.1-.4-.2-.6-.4-9-5.3-17.3-11.8-24.6-19.4l-1.8-1.8c-8.3-5.2-15.9-11.4-22.6-18.6-1.3-1.4-2.6-2.9-3.9-4.4s-2.5-3-3.7-4.6c-4.1-5.4-7.8-11.3-10.9-17.4-4.9-9.7-8.4-20.2-10.4-31.2H547v322c0 2.3-.1 4.7-.4 6.9-3.6 34.3-32.6 61-67.8 61-6.2 0-12.3-.8-18-2.4-1.3-.3-2.5-.7-3.8-1.1-1.2-.4-2.5-.9-3.7-1.4s-2.4-1-3.6-1.6c-.6-.3-1.2-.6-1.7-.9-1.7-.9-3.4-1.8-5.1-2.8-7.1-4.4-13.4-10.1-18.4-16.7-22.3-11.2-37.5-34.3-37.5-60.9 0-37.6 30.5-68.2 68.2-68.2 1.8 0 3.6.1 5.3.2h.4c.7.1 1.5.1 2.2.2.3 0 .6.1.9.1.6.1 1.1.1 1.7.2.4.1.8.1 1.3.2.4.1.9.1 1.3.2l1.5.3c.3.1.7.1 1 .2.5.1 1.1.3 1.6.4.3.1.6.2.9.2.4.1.9.3 1.3.4s.8.2 1.2.4v-64.2c-80.9 1.7-146 67.7-146 149 0 40.6 16.2 77.3 42.5 104.2 23.8 16.1 52.4 25.4 83.1 25.4"/><path class="st8" d="M604.5 576.7c0 82.3-66.8 149-149.1 149-30.7 0-59.3-9.3-83-25.2 23.7 15.9 52.3 25.2 83 25.2 82.4 0 149.1-66.7 149.1-149m-134.7-66.8c.3.1.7.1 1 .2-.3-.1-.6-.2-1-.2m6.1 1.6c-.4-.1-.8-.2-1.2-.4.4.1.8.3 1.2.4m-3.5-1c.3.1.6.2.9.2-.2 0-.6-.1-.9-.2m147.5-88.4c-2.1-1.2-4.2-2.5-6.3-3.8 2.1 1.3 4.2 2.5 6.3 3.8M467 509.3c.4.1.9.1 1.3.2-.4 0-.9-.1-1.3-.2M632.9 429c-4.4-2.1-8.8-4.4-13-6.9 4.2 2.4 8.5 4.7 13 6.9m84 19.1c-30.1 0-58.7-6.9-84.1-19.2 25.5 12.3 54 19.2 84.1 19.2M464 508.9c.6.1 1.1.1 1.7.2-.5-.1-1.1-.2-1.7-.2m-3.1-.4c.7.1 1.5.1 2.2.2-.7 0-1.4-.1-2.2-.2m-5.7-.2c1.8 0 3.6.1 5.3.2-1.8-.1-3.5-.2-5.3-.2"/><path class="st10" d="M449.7 657.8c1.2.6 2.4 1.1 3.6 1.6s2.4.9 3.7 1.4c1.2.4 2.5.8 3.8 1.1 5.7 1.6 11.8 2.4 18 2.4 35.2 0 64.2-26.7 67.8-61 .2-2.3.4-4.6.4-6.9v-322h58.8c-.5-3.1-1-6.2-1.2-9.3v-10.4h-81.1v322c-.1 37.5-30.6 67.9-68.2 67.9-11 0-21.5-2.6-30.7-7.3 5.1 6.6 11.3 12.3 18.4 16.7 1.6 1 3.3 2 5.1 2.8.5.4 1.1.7 1.6 1"/><path class="st10" d="M475.9 447.3V429c-6.8-.9-13.6-1.4-20.5-1.4-82.4 0-149.1 66.7-149.1 149 0 51.6 26.2 97.1 66.1 123.8-26.3-26.9-42.5-63.6-42.5-104.2 0-81.1 65.1-147.2 146-148.9m207.7-75.6c.2.1.4.2.6.4.8.5 1.7.9 2.5 1.4.4.2.9.5 1.3.7.6.3 1.3.6 1.9.9.7.3 1.4.7 2.1 1l1.2.6c.9.4 1.9.9 2.8 1.3.2.1.3.1.5.2 6.5 2.8 13.3 4.9 20.3 6.4v-17.2c-21.1 0-41.8-5.9-59.7-17l1.8 1.8c7.3 7.6 15.6 14.2 24.7 19.5"/><path class="st10" d="M696.6 378.2c-.2-.1-.3-.1-.5-.2.1.1.3.1.5.2m-3.3-1.5-1.2-.6c.3.3.8.5 1.2.6m-6.6-3.2c-.9-.5-1.7-.9-2.5-1.4.8.5 1.7.9 2.5 1.4m3.3 1.7c-.6-.3-1.3-.6-1.9-.9.6.2 1.2.5 1.9.9M329.9 596.3c0-81.3 65.1-147.3 146-149-80.9 1.7-146 67.8-146 149 0 40.6 16.2 77.3 42.5 104.2-26.3-26.9-42.5-63.6-42.5-104.2m353.7-224.6c-9.1-5.3-17.4-11.9-24.6-19.4 7.3 7.6 15.6 14.1 24.6 19.4"/></svg>