<svg width="3840" height="2160" viewBox="0 0 3840 2160" fill="none" xmlns="http://www.w3.org/2000/svg">
<rect width="3840" height="2160" fill="#FF7538"/>
<rect x="3218" y="1972" width="539.93" height="113.732" rx="35.9155" fill="#FEFEFA"/>
<rect x="3283.85" y="1992.8" width="69.7755" height="72.7178" rx="12.6101" fill="#FF7538"/>
<path d="M3338.64 2046.41C3338.64 2047.57 3338.18 2048.69 3337.36 2049.51C3336.54 2050.33 3335.42 2050.79 3334.26 2050.79H3303.6C3302.44 2050.79 3301.32 2050.33 3300.5 2049.51C3299.68 2048.69 3299.22 2047.57 3299.22 2046.41C3299.22 2042.92 3300.6 2039.58 3303.07 2037.12C3305.53 2034.65 3308.87 2033.27 3312.36 2033.27H3325.5C3328.99 2033.27 3332.33 2034.65 3334.79 2037.12C3337.26 2039.58 3338.64 2042.92 3338.64 2046.41ZM3318.93 2028.89C3321.1 2028.89 3323.21 2028.25 3325.01 2027.04C3326.81 2025.84 3328.22 2024.13 3329.05 2022.13C3329.88 2020.13 3330.09 2017.93 3329.67 2015.8C3329.25 2013.68 3328.2 2011.73 3326.67 2010.2C3325.14 2008.66 3323.19 2007.62 3321.07 2007.2C3318.94 2006.78 3316.74 2006.99 3314.74 2007.82C3312.74 2008.65 3311.03 2010.05 3309.83 2011.85C3308.62 2013.66 3307.98 2015.77 3307.98 2017.94C3307.98 2020.84 3309.13 2023.63 3311.19 2025.68C3313.24 2027.74 3316.03 2028.89 3318.93 2028.89Z" fill="#FEFEFA"/>
<path d="M3374.97 2035.76V2006.51H3385.23V2035.07C3385.23 2040.96 3388.46 2044.18 3394.22 2044.18C3400.05 2044.18 3403.34 2040.83 3403.34 2035.07V2006.51H3413.6V2035.76C3413.6 2046.91 3406 2054.13 3394.22 2054.13C3382.51 2054.13 3374.97 2046.97 3374.97 2035.76ZM3444.11 2015.37C3435.63 2015.37 3431.26 2021.33 3431.26 2030.38C3431.26 2039.82 3436.58 2044.5 3444.05 2044.5C3451.77 2044.5 3455.19 2040.32 3455.64 2035.45H3443.23V2026.46H3465.26V2053.37H3456.46L3455.89 2049.12C3453.36 2052.1 3448.29 2054.06 3442.72 2054.06C3429.61 2054.06 3420.43 2044.44 3420.43 2030.06C3420.43 2015.94 3429.87 2005.75 3444.37 2005.75C3455.57 2005.75 3464.18 2012.34 3465.26 2022.47H3454.5C3453.29 2017.53 3448.99 2015.37 3444.11 2015.37ZM3493.99 2054.13C3479.94 2054.13 3471.14 2044.82 3471.14 2030C3471.14 2015.37 3480.44 2005.75 3494.44 2005.75C3506.15 2005.75 3514.57 2012.46 3516.03 2022.97H3505.2C3503.81 2018.29 3499.82 2015.63 3494.18 2015.63C3486.59 2015.63 3481.96 2021.01 3481.96 2029.94C3481.96 2038.74 3486.65 2044.25 3494.18 2044.25C3499.95 2044.25 3504.19 2041.4 3505.46 2036.78H3516.09C3514.45 2047.22 3505.71 2054.13 3493.99 2054.13ZM3566.43 2035.07H3549.97V2053.37H3539.71V2006.51H3569.53V2016.01H3549.97V2025.82H3566.43V2035.07ZM3582.39 2054.19C3575.68 2054.19 3571.5 2050.26 3571.5 2044.06C3571.5 2038.23 3575.61 2034.62 3583.21 2034.05L3592.08 2033.36V2032.85C3592.08 2029.75 3590.18 2028.1 3586.69 2028.1C3582.58 2028.1 3580.36 2029.68 3580.36 2032.53H3572.26C3572.26 2025.38 3578.14 2020.69 3587.2 2020.69C3596.38 2020.69 3601.57 2025.82 3601.57 2034.88V2053.37H3592.96L3592.33 2049.19C3591.32 2052.1 3587.14 2054.19 3582.39 2054.19ZM3585.81 2046.97C3589.54 2046.97 3592.14 2045.13 3592.14 2041.53V2039.82L3587.2 2040.26C3582.96 2040.64 3581.44 2041.59 3581.44 2043.62C3581.44 2045.89 3582.83 2046.97 3585.81 2046.97ZM3630.35 2021.71V2030.89H3627.25C3621.67 2030.89 3618.32 2033.36 3618.32 2039.63V2053.37H3608.57V2021.77H3617.75L3618.25 2026.46C3619.58 2023.35 3622.37 2021.26 3626.61 2021.26C3627.75 2021.26 3629.02 2021.39 3630.35 2021.71ZM3645.03 2053.37H3635.28V2021.71H3644.4L3645.03 2025C3646.61 2022.78 3649.72 2020.69 3654.28 2020.69C3659.02 2020.69 3662.06 2022.91 3663.9 2026.27C3665.55 2022.91 3669.28 2020.69 3673.84 2020.69C3682.01 2020.69 3686.06 2025.44 3686.06 2032.66V2053.37H3676.31V2035.38C3676.31 2031.39 3674.22 2029.49 3671.12 2029.49C3668.33 2029.49 3665.55 2031.01 3665.55 2036.4V2053.37H3655.8V2035.38C3655.8 2031.46 3653.77 2029.56 3650.67 2029.56C3647.88 2029.56 3645.03 2031.08 3645.03 2036.4V2053.37Z" fill="#FF7538"/>
<path d="M1049.7 1011.44V1155H1018.27V1011.44H1049.7ZM1123.04 1053.15C1123.04 1027.15 1144.96 1008.72 1175.81 1008.72C1206.65 1008.72 1226.05 1025.8 1226.05 1052.96H1194.82C1194.82 1042.87 1187.25 1036.66 1175.42 1036.66C1162.62 1036.66 1154.47 1042.48 1154.47 1051.99C1154.47 1060.72 1158.93 1064.98 1169.02 1067.12L1190.55 1071.58C1216.16 1076.82 1228.38 1089.04 1228.38 1111.74C1228.38 1139.48 1206.65 1157.52 1173.67 1157.52C1141.66 1157.52 1120.91 1140.26 1120.91 1113.29H1152.14C1152.14 1123.77 1159.9 1129.59 1173.87 1129.59C1188.03 1129.59 1196.95 1123.96 1196.95 1114.84C1196.95 1106.89 1193.27 1102.81 1183.76 1100.87L1161.84 1096.41C1136.23 1091.17 1123.04 1076.62 1123.04 1053.15ZM1245.53 1201.56V1058H1273.66L1275.21 1069.83C1280.64 1060.91 1292.86 1054.9 1306.64 1054.9C1333.6 1054.9 1352.42 1073.71 1352.42 1104.95C1352.42 1135.6 1335.74 1157.72 1306.83 1157.72C1293.44 1157.72 1281.03 1152.67 1275.4 1145.3V1201.56H1245.53ZM1275.6 1106.5C1275.6 1121.05 1285.3 1130.75 1299.26 1130.75C1313.43 1130.75 1322.35 1120.86 1322.35 1106.5C1322.35 1092.14 1313.43 1082.25 1299.26 1082.25C1285.3 1082.25 1275.6 1091.95 1275.6 1106.5ZM1414.63 1157.52C1385.33 1157.52 1364.38 1136.18 1364.38 1106.31C1364.38 1076.04 1384.75 1054.9 1414.04 1054.9C1444.5 1054.9 1463.51 1074.88 1463.51 1106.5V1114.07L1393.09 1114.45C1394.84 1127.26 1402.02 1133.27 1415.21 1133.27C1426.46 1133.27 1434.41 1129.2 1436.55 1122.21H1463.9C1460.41 1143.75 1441.2 1157.52 1414.63 1157.52ZM1414.24 1079.15C1402.4 1079.15 1395.81 1084.38 1393.48 1096.02H1433.83C1433.83 1085.74 1426.27 1079.15 1414.24 1079.15ZM1511.08 1155H1481.21V1058H1509.34L1511.28 1068.09C1517.29 1059.75 1528.35 1054.9 1540.96 1054.9C1564.04 1054.9 1577.43 1069.64 1577.43 1095.05V1155H1547.55V1102.23C1547.55 1090.01 1540.76 1082.06 1530.48 1082.06C1518.65 1082.06 1511.08 1089.82 1511.08 1101.84V1155ZM1638.04 1155H1608.17V1082.83H1589.74V1058H1608.17V1027.93H1638.04V1058H1656.47V1082.83H1638.04V1155ZM1749.18 1039.57H1716.59V1011.44H1779.25V1155H1749.18V1039.57ZM1801.66 1083.61C1801.66 1039.18 1826.88 1008.72 1864.32 1008.72C1901.76 1008.72 1926.98 1039.18 1926.98 1083.61C1926.98 1128.03 1903.7 1157.52 1864.32 1157.52C1824.94 1157.52 1801.66 1128.03 1801.66 1083.61ZM1832.7 1083.61C1832.7 1114.45 1844.34 1129.97 1864.32 1129.97C1884.3 1129.97 1895.94 1114.45 1895.94 1083.61C1895.94 1051.79 1884.3 1036.27 1864.32 1036.27C1844.34 1036.27 1832.7 1051.79 1832.7 1083.61ZM1975.05 1155H1945.18V1008.72H1975.05V1092.92L2006.48 1058H2043.92L2007.45 1096.41L2042.76 1155H2008.23L1986.5 1118.72L1975.05 1130.75V1155ZM2102.3 1106.31C2102.3 1075.65 2124.8 1055.09 2155.84 1055.09C2186.69 1055.09 2209.19 1075.65 2209.19 1106.31C2209.19 1136.96 2186.69 1157.33 2155.84 1157.33C2124.8 1157.33 2102.3 1136.96 2102.3 1106.31ZM2132.37 1106.11C2132.37 1120.86 2141.88 1130.56 2155.84 1130.56C2169.62 1130.56 2179.12 1120.86 2179.12 1106.11C2179.12 1091.56 2169.62 1081.86 2155.84 1081.86C2141.88 1081.86 2132.37 1091.56 2132.37 1106.11ZM2256.39 1155H2226.51V1058H2254.64L2256.58 1068.09C2262.6 1059.75 2273.66 1054.9 2286.27 1054.9C2309.35 1054.9 2322.74 1069.64 2322.74 1095.05V1155H2292.86V1102.23C2292.86 1090.01 2286.07 1082.06 2275.79 1082.06C2263.96 1082.06 2256.39 1089.82 2256.39 1101.84V1155ZM2398.22 1101.07V1011.44H2429.65V1098.93C2429.65 1116.98 2439.54 1126.87 2457.2 1126.87C2475.05 1126.87 2485.13 1116.59 2485.13 1098.93V1011.44H2516.56V1101.07C2516.56 1135.21 2493.28 1157.33 2457.2 1157.33C2421.31 1157.33 2398.22 1135.41 2398.22 1101.07ZM2610.05 1038.6C2584.06 1038.6 2570.67 1056.84 2570.67 1084.58C2570.67 1113.48 2586.97 1127.84 2609.86 1127.84C2633.53 1127.84 2644 1115.04 2645.36 1100.1H2607.34V1072.55H2674.85V1155H2647.88L2646.14 1142C2638.38 1151.12 2622.86 1157.13 2605.78 1157.13C2565.63 1157.13 2537.5 1127.65 2537.5 1083.61C2537.5 1040.35 2566.4 1009.11 2610.83 1009.11C2645.17 1009.11 2671.55 1029.29 2674.85 1060.33H2641.87C2638.18 1045.2 2624.99 1038.6 2610.05 1038.6ZM2762.88 1157.33C2719.81 1157.33 2692.85 1128.81 2692.85 1083.41C2692.85 1038.6 2721.37 1009.11 2764.24 1009.11C2800.13 1009.11 2825.93 1029.68 2830.39 1061.88H2797.22C2792.95 1047.52 2780.73 1039.38 2763.46 1039.38C2740.18 1039.38 2726.02 1055.87 2726.02 1083.22C2726.02 1110.19 2740.38 1127.06 2763.46 1127.06C2781.12 1127.06 2794.12 1118.33 2798 1104.17H2830.59C2825.54 1136.18 2798.77 1157.33 2762.88 1157.33Z" fill="#FEFEFA"/>
</svg>
