<svg width="3840" height="2160" viewBox="0 0 3840 2160" fill="none" xmlns="http://www.w3.org/2000/svg">
<rect width="3840" height="2160" fill="#FF7538"/>
<rect x="3218" y="1972" width="539.93" height="113.732" rx="35.9155" fill="#FEFEFA"/>
<rect x="3283.85" y="1992.8" width="69.7755" height="72.7178" rx="12.6101" fill="#FF7538"/>
<path d="M3338.64 2046.41C3338.64 2047.57 3338.18 2048.69 3337.36 2049.51C3336.54 2050.33 3335.42 2050.79 3334.26 2050.79H3303.6C3302.44 2050.79 3301.32 2050.33 3300.5 2049.51C3299.68 2048.69 3299.22 2047.57 3299.22 2046.41C3299.22 2042.92 3300.6 2039.58 3303.07 2037.12C3305.53 2034.65 3308.87 2033.27 3312.36 2033.27H3325.5C3328.99 2033.27 3332.33 2034.65 3334.79 2037.12C3337.26 2039.58 3338.64 2042.92 3338.64 2046.41ZM3318.93 2028.89C3321.1 2028.89 3323.21 2028.25 3325.01 2027.04C3326.81 2025.84 3328.22 2024.13 3329.05 2022.13C3329.88 2020.13 3330.09 2017.93 3329.67 2015.8C3329.25 2013.68 3328.2 2011.73 3326.67 2010.2C3325.14 2008.66 3323.19 2007.62 3321.07 2007.2C3318.94 2006.78 3316.74 2006.99 3314.74 2007.82C3312.74 2008.65 3311.03 2010.05 3309.83 2011.85C3308.62 2013.66 3307.98 2015.77 3307.98 2017.94C3307.98 2020.84 3309.13 2023.63 3311.19 2025.68C3313.24 2027.74 3316.03 2028.89 3318.93 2028.89Z" fill="#FEFEFA"/>
<path d="M3374.97 2035.76V2006.51H3385.23V2035.07C3385.23 2040.96 3388.46 2044.18 3394.22 2044.18C3400.05 2044.18 3403.34 2040.83 3403.34 2035.07V2006.51H3413.6V2035.76C3413.6 2046.91 3406 2054.13 3394.22 2054.13C3382.51 2054.13 3374.97 2046.97 3374.97 2035.76ZM3444.11 2015.37C3435.63 2015.37 3431.26 2021.33 3431.26 2030.38C3431.26 2039.82 3436.58 2044.5 3444.05 2044.5C3451.77 2044.5 3455.19 2040.32 3455.64 2035.45H3443.23V2026.46H3465.26V2053.37H3456.46L3455.89 2049.12C3453.36 2052.1 3448.29 2054.06 3442.72 2054.06C3429.61 2054.06 3420.43 2044.44 3420.43 2030.06C3420.43 2015.94 3429.87 2005.75 3444.37 2005.75C3455.57 2005.75 3464.18 2012.34 3465.26 2022.47H3454.5C3453.29 2017.53 3448.99 2015.37 3444.11 2015.37ZM3493.99 2054.13C3479.94 2054.13 3471.14 2044.82 3471.14 2030C3471.14 2015.37 3480.44 2005.75 3494.44 2005.75C3506.15 2005.75 3514.57 2012.46 3516.03 2022.97H3505.2C3503.81 2018.29 3499.82 2015.63 3494.18 2015.63C3486.59 2015.63 3481.96 2021.01 3481.96 2029.94C3481.96 2038.74 3486.65 2044.25 3494.18 2044.25C3499.95 2044.25 3504.19 2041.4 3505.46 2036.78H3516.09C3514.45 2047.22 3505.71 2054.13 3493.99 2054.13ZM3566.43 2035.07H3549.97V2053.37H3539.71V2006.51H3569.53V2016.01H3549.97V2025.82H3566.43V2035.07ZM3582.39 2054.19C3575.68 2054.19 3571.5 2050.26 3571.5 2044.06C3571.5 2038.23 3575.61 2034.62 3583.21 2034.05L3592.08 2033.36V2032.85C3592.08 2029.75 3590.18 2028.1 3586.69 2028.1C3582.58 2028.1 3580.36 2029.68 3580.36 2032.53H3572.26C3572.26 2025.38 3578.14 2020.69 3587.2 2020.69C3596.38 2020.69 3601.57 2025.82 3601.57 2034.88V2053.37H3592.96L3592.33 2049.19C3591.32 2052.1 3587.14 2054.19 3582.39 2054.19ZM3585.81 2046.97C3589.54 2046.97 3592.14 2045.13 3592.14 2041.53V2039.82L3587.2 2040.26C3582.96 2040.64 3581.44 2041.59 3581.44 2043.62C3581.44 2045.89 3582.83 2046.97 3585.81 2046.97ZM3630.35 2021.71V2030.89H3627.25C3621.67 2030.89 3618.32 2033.36 3618.32 2039.63V2053.37H3608.57V2021.77H3617.75L3618.25 2026.46C3619.58 2023.35 3622.37 2021.26 3626.61 2021.26C3627.75 2021.26 3629.02 2021.39 3630.35 2021.71ZM3645.03 2053.37H3635.28V2021.71H3644.4L3645.03 2025C3646.61 2022.78 3649.72 2020.69 3654.28 2020.69C3659.02 2020.69 3662.06 2022.91 3663.9 2026.27C3665.55 2022.91 3669.28 2020.69 3673.84 2020.69C3682.01 2020.69 3686.06 2025.44 3686.06 2032.66V2053.37H3676.31V2035.38C3676.31 2031.39 3674.22 2029.49 3671.12 2029.49C3668.33 2029.49 3665.55 2031.01 3665.55 2036.4V2053.37H3655.8V2035.38C3655.8 2031.46 3653.77 2029.56 3650.67 2029.56C3647.88 2029.56 3645.03 2031.08 3645.03 2036.4V2053.37Z" fill="#FF7538"/>
<path d="M742.262 1155V1011.44H802.014C830.92 1011.44 848.38 1026.57 848.38 1051.21C848.38 1066.54 841.396 1077.79 828.398 1083.41C842.56 1088.07 850.126 1099.13 850.126 1115.42C850.126 1140.84 833.054 1155 802.014 1155H742.262ZM798.716 1038.99H773.69V1070.22H798.716C809.968 1070.22 816.176 1064.6 816.176 1054.31C816.176 1044.23 810.162 1038.99 798.716 1038.99ZM800.268 1096.61H773.69V1127.45H800.268C811.908 1127.45 817.922 1122.21 817.922 1111.54C817.922 1101.84 811.714 1096.61 800.268 1096.61ZM934.33 1058V1086.13H924.824C907.752 1086.13 897.47 1093.7 897.47 1112.9V1155H867.594V1058.19H895.724L897.276 1072.55C901.35 1063.04 909.886 1056.64 922.884 1056.64C926.376 1056.64 930.256 1057.03 934.33 1058ZM974.942 1157.52C954.378 1157.52 941.574 1145.49 941.574 1126.48C941.574 1108.63 954.184 1097.58 977.464 1095.83L1004.62 1093.7V1092.14C1004.62 1082.64 998.804 1077.59 988.134 1077.59C975.524 1077.59 968.734 1082.44 968.734 1091.17H943.902C943.902 1069.25 961.944 1054.9 989.686 1054.9C1017.82 1054.9 1033.72 1070.61 1033.72 1098.35V1155H1007.34L1005.4 1142.2C1002.3 1151.12 989.492 1157.52 974.942 1157.52ZM985.418 1135.41C996.864 1135.41 1004.82 1129.78 1004.82 1118.72V1113.48L989.686 1114.84C976.688 1116.01 972.032 1118.92 972.032 1125.12C972.032 1132.11 976.3 1135.41 985.418 1135.41ZM1085.03 1155H1055.15V1058H1083.28L1085.22 1068.09C1091.24 1059.75 1102.29 1054.9 1114.9 1054.9C1137.99 1054.9 1151.38 1069.64 1151.38 1095.05V1155H1121.5V1102.23C1121.5 1090.01 1114.71 1082.06 1104.43 1082.06C1092.59 1082.06 1085.03 1089.82 1085.03 1101.84V1155ZM1213.54 1157.52C1185.61 1157.52 1167.56 1137.73 1167.56 1107.08C1167.56 1076.24 1185.99 1054.9 1215.48 1054.9C1227.51 1054.9 1238.96 1059.75 1244.58 1066.92V1008.72H1274.46V1155H1246.33L1244.78 1142.58C1239.54 1151.51 1227.51 1157.52 1213.54 1157.52ZM1220.72 1130.17C1234.69 1130.17 1244.39 1120.47 1244.39 1105.92C1244.39 1091.37 1234.69 1081.67 1220.72 1081.67C1206.56 1081.67 1197.63 1091.56 1197.63 1105.92C1197.63 1120.27 1206.56 1130.17 1220.72 1130.17ZM1289.91 1124.35H1318.23C1318.62 1131.14 1323.67 1135.21 1332.78 1135.21C1342.1 1135.21 1346.36 1131.91 1346.36 1126.87C1346.36 1123.96 1344.81 1120.86 1337.63 1119.3L1319.79 1115.42C1301.94 1111.54 1293.21 1103.78 1293.21 1086.71C1293.21 1066.54 1310.47 1054.9 1333.75 1054.9C1356.26 1054.9 1371.97 1068.09 1371.97 1087.68H1343.65C1343.65 1081.09 1339.57 1076.62 1332.4 1076.62C1325.61 1076.62 1321.34 1080.12 1321.34 1085.35C1321.34 1089.82 1325.02 1092.34 1331.81 1093.89L1349.86 1097.77C1365.76 1101.26 1374.49 1108.63 1374.49 1124.15C1374.49 1144.91 1356.84 1157.52 1331.62 1157.52C1306.01 1157.52 1289.91 1143.94 1289.91 1124.35ZM1470.74 1157.52C1450.18 1157.52 1437.37 1145.49 1437.37 1126.48C1437.37 1108.63 1449.98 1097.58 1473.26 1095.83L1500.42 1093.7V1092.14C1500.42 1082.64 1494.6 1077.59 1483.93 1077.59C1471.32 1077.59 1464.53 1082.44 1464.53 1091.17H1439.7C1439.7 1069.25 1457.74 1054.9 1485.49 1054.9C1513.62 1054.9 1529.52 1070.61 1529.52 1098.35V1155H1503.14L1501.2 1142.2C1498.1 1151.12 1485.29 1157.52 1470.74 1157.52ZM1481.22 1135.41C1492.66 1135.41 1500.62 1129.78 1500.62 1118.72V1113.48L1485.49 1114.84C1472.49 1116.01 1467.83 1118.92 1467.83 1125.12C1467.83 1132.11 1472.1 1135.41 1481.22 1135.41ZM1617.69 1058V1086.13H1608.18C1591.11 1086.13 1580.83 1093.7 1580.83 1112.9V1155H1550.95V1058.19H1579.08L1580.63 1072.55C1584.71 1063.04 1593.24 1056.64 1606.24 1056.64C1609.73 1056.64 1613.61 1057.03 1617.69 1058ZM1674.96 1157.52C1645.67 1157.52 1624.72 1136.18 1624.72 1106.31C1624.72 1076.04 1645.09 1054.9 1674.38 1054.9C1704.84 1054.9 1723.85 1074.88 1723.85 1106.5V1114.07L1653.43 1114.45C1655.17 1127.26 1662.35 1133.27 1675.54 1133.27C1686.8 1133.27 1694.75 1129.2 1696.88 1122.21H1724.24C1720.75 1143.75 1701.54 1157.52 1674.96 1157.52ZM1674.57 1079.15C1662.74 1079.15 1656.14 1084.38 1653.82 1096.02H1694.17C1694.17 1085.74 1686.6 1079.15 1674.57 1079.15ZM1822.76 1155H1792.88V1008.72H1822.76V1155ZM1890.18 1157.52C1860.89 1157.52 1839.93 1136.18 1839.93 1106.31C1839.93 1076.04 1860.3 1054.9 1889.6 1054.9C1920.06 1054.9 1939.07 1074.88 1939.07 1106.5V1114.07L1868.65 1114.45C1870.39 1127.26 1877.57 1133.27 1890.76 1133.27C1902.01 1133.27 1909.97 1129.2 1912.1 1122.21H1939.46C1935.96 1143.75 1916.76 1157.52 1890.18 1157.52ZM1889.79 1079.15C1877.96 1079.15 1871.36 1084.38 1869.03 1096.02H1909.39C1909.39 1085.74 1901.82 1079.15 1889.79 1079.15ZM1985.11 1157.52C1964.54 1157.52 1951.74 1145.49 1951.74 1126.48C1951.74 1108.63 1964.35 1097.58 1987.63 1095.83L2014.79 1093.7V1092.14C2014.79 1082.64 2008.97 1077.59 1998.3 1077.59C1985.69 1077.59 1978.9 1082.44 1978.9 1091.17H1954.07C1954.07 1069.25 1972.11 1054.9 1999.85 1054.9C2027.98 1054.9 2043.89 1070.61 2043.89 1098.35V1155H2017.5L2015.56 1142.2C2012.46 1151.12 1999.66 1157.52 1985.11 1157.52ZM1995.58 1135.41C2007.03 1135.41 2014.98 1129.78 2014.98 1118.72V1113.48L1999.85 1114.84C1986.85 1116.01 1982.2 1118.92 1982.2 1125.12C1982.2 1132.11 1986.46 1135.41 1995.58 1135.41ZM2089.08 1155L2051.25 1058H2083.45L2095.28 1091.95C2100.13 1106.11 2104.01 1118.33 2104.79 1122.8C2105.95 1117.17 2110.22 1104.56 2115.07 1091.95L2128.07 1058H2159.11L2118.56 1155H2089.08ZM2186.15 1042.87C2176.65 1042.87 2169.08 1035.3 2169.08 1025.8C2169.08 1016.29 2176.65 1008.92 2186.15 1008.92C2195.47 1008.92 2203.03 1016.29 2203.03 1025.8C2203.03 1035.3 2195.47 1042.87 2186.15 1042.87ZM2171.41 1155V1058H2201.29V1155H2171.41ZM2253.58 1155H2223.7V1058H2251.83L2253.77 1068.09C2259.78 1059.75 2270.84 1054.9 2283.45 1054.9C2306.54 1054.9 2319.92 1069.64 2319.92 1095.05V1155H2290.05V1102.23C2290.05 1090.01 2283.26 1082.06 2272.98 1082.06C2261.14 1082.06 2253.58 1089.82 2253.58 1101.84V1155ZM2336.5 1104.75C2336.5 1075.27 2355.71 1054.7 2383.06 1054.7C2396.25 1054.7 2406.73 1059.75 2411.97 1067.7L2413.52 1058H2441.65V1148.79C2441.65 1183.52 2421.67 1204.47 2388.49 1204.47C2358.81 1204.47 2338.83 1187.59 2336.11 1160.04H2366.38C2366.96 1170.91 2375.11 1177.31 2388.3 1177.31C2402.65 1177.31 2411.77 1168.77 2411.77 1155V1142.39C2405.95 1149.37 2395.09 1153.84 2382.48 1153.84C2355.32 1153.84 2336.5 1133.85 2336.5 1104.75ZM2366.57 1103.98C2366.57 1117.95 2375.88 1127.84 2389.07 1127.84C2402.65 1127.84 2411.77 1118.33 2411.77 1103.98C2411.77 1089.82 2402.65 1080.7 2388.88 1080.7C2375.69 1080.7 2366.57 1090.2 2366.57 1103.98ZM2508.09 1040.54V1011.44H2620.99V1040.54H2580.25V1155H2548.83V1040.54H2508.09ZM2650.88 1042.87C2641.38 1042.87 2633.81 1035.3 2633.81 1025.8C2633.81 1016.29 2641.38 1008.92 2650.88 1008.92C2660.19 1008.92 2667.76 1016.29 2667.76 1025.8C2667.76 1035.3 2660.19 1042.87 2650.88 1042.87ZM2636.14 1155V1058H2666.01V1155H2636.14ZM2718.3 1155H2688.43V1008.72H2718.3V1092.92L2749.73 1058H2787.17L2750.7 1096.41L2786.01 1155H2751.48L2729.75 1118.72L2718.3 1130.75V1155ZM2784.31 1040.54V1011.44H2897.22V1040.54H2856.48V1155H2825.05V1040.54H2784.31ZM2889.69 1106.31C2889.69 1075.65 2912.2 1055.09 2943.24 1055.09C2974.08 1055.09 2996.59 1075.65 2996.59 1106.31C2996.59 1136.96 2974.08 1157.33 2943.24 1157.33C2912.2 1157.33 2889.69 1136.96 2889.69 1106.31ZM2919.76 1106.11C2919.76 1120.86 2929.27 1130.56 2943.24 1130.56C2957.01 1130.56 2966.52 1120.86 2966.52 1106.11C2966.52 1091.56 2957.01 1081.86 2943.24 1081.86C2929.27 1081.86 2919.76 1091.56 2919.76 1106.11ZM3043.78 1155H3013.91V1008.72H3043.78V1092.92L3075.21 1058H3112.65L3076.18 1096.41L3111.49 1155H3076.96L3055.23 1118.72L3043.78 1130.75V1155Z" fill="#FEFEFA"/>
</svg>
